<?xml version="1.0" standalone="no"?>
<!DOCTYPE svg PUBLIC "-//W3C//DTD SVG 1.1//EN" "http://www.w3.org/Graphics/SVG/1.1/DTD/svg11.dtd" >
<svg xmlns="http://www.w3.org/2000/svg">
<metadata></metadata>
<defs>
<font id="audimatitalic" horiz-adv-x="1069" >
<font-face units-per-em="2048" ascent="1554" descent="-494" />
<missing-glyph horiz-adv-x="614" />
<glyph horiz-adv-x="0" />
<glyph horiz-adv-x="682" />
<glyph unicode="&#xd;" horiz-adv-x="0" />
<glyph unicode=" "  horiz-adv-x="614" />
<glyph unicode="&#x09;" horiz-adv-x="614" />
<glyph unicode="&#xa0;" horiz-adv-x="614" />
<glyph unicode="!" horiz-adv-x="487" d="M51 2l35 197h199l-35 -197h-199zM190 449q11 118 36 378t38 396l31 174h205l-31 -174q-34 -132 -101.5 -387t-101.5 -387h-76z" />
<glyph unicode="&#x22;" horiz-adv-x="624" d="M197 846v315l43 236h141l-43 -236l-109 -315h-32zM506 846l2 315l43 236h141l-43 -236l-110 -315h-33z" />
<glyph unicode="#" horiz-adv-x="1292" d="M84 338l27 160h196l125 401h-139l29 160h161q55 188 105 338h160l-103 -338h287q35 119 104 338h160l-102 -338h176l-29 -160h-197l-124 -401h137l-27 -160h-160q-9 -30 -47 -154t-57 -184h-160l103 338h-287q-2 -6 -44 -141t-61 -197h-159l102 338h-176zM469 498h287 l127 401h-287z" />
<glyph unicode="$" horiz-adv-x="1007" d="M109 0l26 160h256l82 458q-76 11 -135.5 41t-92.5 71t-55 89.5t-23.5 96.5t3.5 92q11 57 42 116t82.5 116.5t134 99.5t181.5 55l19 114h94l-18 -112h258l-29 -160h-258l-82 -461q76 -11 135.5 -41t92.5 -70t55 -88.5t23.5 -96t-3.5 -91.5q-10 -57 -41 -116.5t-83 -117 t-134 -100t-180 -55.5l-21 -113h-94l21 113h-256zM329.5 978q-0.5 -16 2.5 -39t14 -45.5t28.5 -45t50 -41.5t75.5 -31l82 461q-69 -16 -120.5 -48t-77 -68.5t-37 -63t-15.5 -49.5q-2 -14 -2.5 -30zM485 158q56 14 100.5 39t70.5 50t44 55t25 49t10 36q2 14 2.5 30t-2.5 39.5 t-14 46t-28.5 44.5t-50 41t-75.5 30z" />
<glyph unicode="%" horiz-adv-x="1861" d="M176 1036q26 149 150.5 255t273.5 106q150 0 236.5 -105.5t60.5 -255.5q-28 -152 -150.5 -257t-273.5 -105q-150 0 -237.5 105.5t-59.5 256.5zM313 1036q-17 -92 37.5 -157.5t147.5 -65.5q92 0 169.5 65.5t94.5 157.5q15 91 -40 156t-147 65t-169.5 -65t-92.5 -156z M348 0l1082 1397h122l-1081 -1397h-123zM1024 362q26 150 150 255.5t274 105.5q149 0 237 -106t62 -255q-28 -152 -152 -257t-274 -105q-151 0 -238 105t-59 257zM1161 362q-17 -92 37 -157.5t145 -65.5q92 0 170 65.5t95 157.5q15 91 -39 156.5t-146 65.5q-91 0 -169 -66 t-93 -156z" />
<glyph unicode="&#x26;" horiz-adv-x="1079" d="M92 389q31 177 211 309q-133 130 -102 310q15 82 54.5 149.5t90.5 111t112.5 73.5t119 42.5t110.5 12.5h305l-28 -160h-303q-16 -1 -29.5 -2t-43 -6.5t-53.5 -14.5t-54.5 -26.5t-53 -40.5t-41.5 -59t-27 -80q-10 -60 5.5 -105.5t43 -68t66 -36.5t63 -17t44.5 -3h143 l29 170h159l-28 -170h225l-29 -160h-225l-31 -169h-159l30 169h-143q-21 0 -45.5 -3t-68 -16.5t-78.5 -36t-66.5 -67.5t-42.5 -106q-10 -60 5.5 -105t42.5 -68t65 -36.5t61.5 -16.5t42.5 -3h418l-27 -160h-418q-53 0 -106 12.5t-104 42t-87 73t-52 111.5t-1 150z" />
<glyph unicode="'" horiz-adv-x="311" d="M195 846q-1 55 1 158.5t1 156.5l43 236h139l-43 -236q-11 -32 -49 -145t-60 -170h-32z" />
<glyph unicode="(" horiz-adv-x="589" d="M93.5 276q1.5 129 23.5 254q29 163 98 337t139 296.5t148 233.5h186q-55 -71 -107.5 -151t-116.5 -194t-114 -250.5t-74 -271.5q-75 -423 105 -868h-186q-28 80 -49.5 170t-37.5 202.5t-14.5 241.5z" />
<glyph unicode=")" horiz-adv-x="589" d="M-96 -338h184q79 111 148.5 233.5t139 297t97.5 337.5q22 124 23.5 253t-14.5 241t-37.5 202.5t-49.5 170.5h-186q179 -444 104 -867q-24 -136 -74 -272.5t-113.5 -251t-115 -193.5t-106.5 -151z" />
<glyph unicode="*" horiz-adv-x="780" d="M197 1151q12 29 39 74l219 -70q4 20 53 240q38 5 76 0l-37 -238l246 68q9 -35 12 -72l-244 -82q9 -17 47.5 -97t57.5 -118q-44 -34 -64 -43l-125 205q-106 -114 -194 -205q-33 17 -56 43l189 215q-32 13 -110.5 40.5t-108.5 39.5z" />
<glyph unicode="+" horiz-adv-x="1007" d="M72 449l28 161h336l60 338h161l-59 -338h338l-29 -161h-338l-59 -336h-162l60 336h-336z" />
<glyph unicode="," horiz-adv-x="370" d="M-39 -207q41 15 69 41.5t39.5 54.5t17 53.5t4.5 41.5l-1 16h-96l33 197h198l-35 -207q-11 -63 -38 -113.5t-59.5 -80t-55 -44t-41.5 -22.5q-5 12 -17.5 32t-17.5 31z" />
<glyph unicode="-" horiz-adv-x="780" d="M72 449l28 161h609l-29 -161h-608z" />
<glyph unicode="." horiz-adv-x="368" d="M-6 2l35 197h196l-35 -197h-196z" />
<glyph unicode="/" horiz-adv-x="624" d="M-57 -225l622 1622h137q-93 -244 -301.5 -784t-322.5 -838h-135z" />
<glyph unicode="0" horiz-adv-x="997" d="M94.5 244.5q-1.5 26.5 1.5 43.5l2 17l138 787q11 62 37 112.5t58.5 81.5t69 54t71 33.5t62.5 16.5t45 6l17 1h113q62 0 109.5 -17t73.5 -43.5t43 -59.5t21.5 -65.5t5.5 -59t-2 -43.5l-2 -17l-137 -787q-11 -62 -36.5 -112.5t-58 -81.5t-69 -54t-70.5 -33.5t-62 -16.5 t-45 -7h-17h-113q-62 0 -109.5 17t-74 43.5t-43.5 59t-22 65.5t-6.5 59.5zM260 305q-8 -41 1.5 -70.5t28 -43.5t38.5 -21.5t34 -8.5l15 -1h112q40 0 72.5 15t49.5 36t29 42.5t16 36.5l3 15l138 787q8 41 -1.5 70.5t-28 43.5t-38.5 21.5t-35 8.5l-14 1h-113q-40 0 -72.5 -15 t-49.5 -36.5t-29 -42.5t-16 -36l-3 -15z" />
<glyph unicode="1" horiz-adv-x="718" d="M-16 0l26 160h223l191 1077h-223l28 160h385l-219 -1237h223l-26 -160h-608z" />
<glyph unicode="2" horiz-adv-x="882" d="M27 0l26 160q13 12 35.5 33.5t87.5 87.5t125.5 132.5t136.5 159.5t133.5 176.5t103 176t58.5 166.5q7 41 -0.5 70.5t-26.5 44.5t-40.5 22t-47.5 8h-114q-127 0 -162 -117q-31 0 -82.5 1t-79.5 1q8 46 35 93.5t70 88.5t108 67t139 26h113q39 0 77 -10t75.5 -32.5t62.5 -58 t36.5 -86.5t-1.5 -118q-15 -84 -59 -181.5t-103 -185t-126.5 -174t-132.5 -155.5t-118 -123t-86 -83l-32 -30h493l-26 -160h-678z" />
<glyph unicode="3" horiz-adv-x="935" d="M27 225.5q0 -25.5 5.5 -58t23.5 -61t45.5 -53t76 -39t111.5 -14.5h110q6 0 17.5 0.5t44.5 6.5t64 16.5t70.5 33.5t70.5 54t57 81.5t37 112.5l18 113q7 37 8.5 67t-4.5 56t-11.5 43.5t-21 40.5t-25 34.5t-30.5 36.5q88 79 129.5 140.5t55.5 144.5l18 111q11 65 3.5 113 t-29.5 81t-50 54t-59.5 33t-57 17t-42.5 6l-17 1h-110q-62 0 -115.5 -15t-88.5 -39t-63.5 -53.5t-44 -58.5t-26 -53t-13.5 -39l-4 -15h162q6 32 25 55.5t42 34t45 16.5t37 6l15 1h110q41 0 68 -15t37 -36.5t14 -42.5t2 -36l-2 -15l-18 -115q-4 -21 -10.5 -41.5t-24 -51 t-41.5 -52.5t-66 -38t-94 -16h-22l-29 -160h33q16 0 24.5 -0.5t25.5 -3t27 -6t25 -10.5t23.5 -17t17.5 -25t12.5 -34t3.5 -45.5t-6 -58.5l-18 -113q-1 -6 -3.5 -15.5t-15 -34.5t-30 -44.5t-50 -35t-73.5 -15.5h-111q-6 0 -15.5 0.5t-32.5 6.5t-40 17t-28.5 34.5t-5.5 55.5 h-162q-4 -23 -4 -48.5z" />
<glyph unicode="4" horiz-adv-x="858" d="M23 338l32 190q70 141 219 434.5t218 434.5h180l-475 -899h327l41 225h162l-41 -225h111l-27 -160h-111l-59 -338h-162l60 338h-475z" />
<glyph unicode="5" horiz-adv-x="948" d="M90.5 219.5q-1.5 24.5 0.5 39.5t3 15h162q-6 -32 5 -55.5t30 -34.5t39 -17t34 -7h15h110q41 0 73.5 15t50.5 36t29.5 42.5t15.5 36.5l4 15l38 225q1 3 1.5 8t0.5 20t-2.5 28.5t-10.5 30.5t-20 29t-34.5 20t-52.5 8h-418l127 723h655l-28 -160h-494l-72 -403h256 q63 0 110.5 -17t74 -43.5t44 -59t22.5 -65t6.5 -59t-1.5 -43.5l-2 -17l-39 -225q-11 -62 -36.5 -112.5t-58 -81.5t-69.5 -54t-71.5 -33.5t-62.5 -16.5t-45 -7h-17h-111q-62 0 -110 15t-75.5 39.5t-45.5 53.5t-23.5 58t-7 53.5z" />
<glyph unicode="6" horiz-adv-x="946" d="M93 239.5q-3 34.5 5 65.5l138 787q9 49 35 99.5t68.5 98t109.5 77.5t147 30h373l-29 -160h-373q-79 0 -119 -42.5t-51 -102.5l-45 -258h256q54 0 98 -14t72 -37.5t48.5 -54.5t28 -64.5t10.5 -68t-5 -65.5l-39 -225q-11 -64 -40.5 -117t-67 -87t-82.5 -57.5t-87 -33.5 t-81 -10h-113q-54 0 -98.5 14t-72 37.5t-48.5 54.5t-28 65t-10 68.5zM259 238q3 -32 33 -55t85 -23h112q146 4 170 145l39 225q23 144 -116 144h-256l-66 -369q-4 -35 -1 -67z" />
<glyph unicode="7" horiz-adv-x="790" d="M154 0l575 1237h-569l28 160h721l-30 -170l-566 -1227h-159z" />
<glyph unicode="8" horiz-adv-x="999" d="M94.5 244.5q-1.5 26.5 1.5 43.5l2 17l27 158q26 151 172 254q-30 32 -49 71t-25 72t-8 61t0 44l2 16l19 111q11 62 37 112.5t59 81.5t69.5 54t71.5 33.5t63 16.5t45 6l17 1h111q63 0 110.5 -17t74 -43.5t43.5 -59.5t21.5 -65.5t6 -59t-0.5 -43.5l-3 -17l-19 -111 q-26 -155 -174 -258q48 -50 68.5 -115t17.5 -105l-4 -40l-27 -158q-11 -62 -36.5 -112.5t-58 -81.5t-69.5 -54t-71.5 -33.5t-62.5 -16.5t-45 -7h-17h-111q-63 0 -110.5 17t-74 43.5t-44 59t-22.5 65.5t-6.5 59.5zM260 305q-8 -41 1.5 -70.5t28.5 -43.5t39 -21.5t35 -8.5 l15 -1h110q41 0 73.5 15t50.5 36t29.5 42.5t15.5 36.5l4 15l34 203q8 41 -1.5 70.5t-28.5 43.5t-38.5 21.5t-34.5 8.5l-15 1h-111q-41 0 -73.5 -15t-50 -36.5t-29.5 -42.5t-16 -36l-3 -15zM371 936q-7 -41 3 -70.5t29 -43.5t39 -21.5t35 -8.5l15 -1h110q41 0 73 15 t49.5 36.5t29 42.5t14.5 36l4 15l27 156q8 41 -1.5 70.5t-28.5 43.5t-39 21.5t-35 8.5l-15 1h-111q-41 0 -73.5 -15t-50 -36.5t-29.5 -42.5t-16 -36l-3 -15z" />
<glyph unicode="9" horiz-adv-x="948" d="M39 0l27 160h372q141 0 172 145l45 258h-256q-65 0 -115 20t-77.5 52t-45.5 72t-19 81t3 78l39 226q12 65 41.5 118t67.5 87t84 57t88.5 33t81.5 10h110q54 0 98.5 -14t72 -38t48.5 -55t28 -65t10 -68.5t-5 -64.5l-137 -787q-9 -50 -35 -100.5t-68.5 -97.5t-109.5 -77 t-147 -30h-373zM307 868q-21 -145 121 -145h256l64 369q22 145 -119 145h-111q-62 -2 -110 -34.5t-62 -110.5z" />
<glyph unicode=":" horiz-adv-x="370" d="M-6 2l35 197h198l-34 -197h-199zM127 764l35 199h198l-34 -199h-199z" />
<glyph unicode=";" horiz-adv-x="360" d="M-39 -207q41 15 69 41.5t39.5 54.5t17 53.5t4.5 41.5l-1 16h-96l33 197h198l-35 -207q-11 -63 -38 -113.5t-59.5 -80t-55 -44t-41.5 -22.5q-5 12 -17.5 32t-17.5 31zM127 764l35 199h198l-34 -199h-199z" />
<glyph unicode="&#x3c;" horiz-adv-x="876" d="M43 459l25 143q79 41 378.5 196.5t464.5 239.5l-34 -196l-652 -312q532 -306 541 -311l-35 -199z" />
<glyph unicode="=" horiz-adv-x="1007" d="M33 225l28 160h836l-29 -160h-835zM113 674l26 160h836l-27 -160h-835z" />
<glyph unicode="&#x3e;" horiz-adv-x="876" d="M-35 20l844 441l25 141q-103 64 -329 208.5t-360 227.5l-34 -196q96 -54 293.5 -169t246.5 -143l-651 -311z" />
<glyph unicode="?" horiz-adv-x="894" d="M190 1124q18 73 59.5 128.5t93.5 85.5t103 44.5t99 14.5h112q39 0 77 -10t75.5 -32.5t62.5 -58t36.5 -86.5t-1.5 -118q-8 -47 -28.5 -90t-55 -85.5t-61.5 -70.5t-74 -72q-18 -18 -57.5 -55.5t-62.5 -62t-52 -59.5t-48 -71.5t-28 -76.5h-98q27 136 89.5 237t154.5 191 q55 54 81.5 82t49.5 64.5t28 68.5q7 41 0 70.5t-26 44.5t-40.5 22t-47.5 8h-113q-50 -2 -96.5 -29.5t-67.5 -83.5h-164zM221 2l35 197h199l-35 -197h-199z" />
<glyph unicode="@" horiz-adv-x="1312" d="M78 305q22 127 127 216t231 89h305l-53 -305q-11 -59 24 -102t95 -43q58 0 108.5 43t61.5 102l80 451q7 40 -2.5 69.5t-28.5 43t-39 21t-35 8.5l-14 1h-756l29 160h756q62 0 109 -16.5t73 -43.5t43 -59t22 -64.5t6.5 -59.5t-0.5 -44l-3 -16l-80 -451 q-23 -126 -127 -215.5t-230 -89.5q-200 0 -239 147q-18 -46 -78 -96.5t-133 -50.5q-126 0 -200.5 89.5t-51.5 215.5zM238 305q-11 -59 24.5 -102t93.5 -43q60 0 109.5 43t60.5 102l25 144h-143q-59 0 -109.5 -42t-60.5 -102z" />
<glyph unicode="A" horiz-adv-x="944" d="M-98 0l616 1397h213l127 -1397h-162l-22 225h-512l-99 -225h-161zM236 385h421l-47 840h-32z" />
<glyph unicode="B" horiz-adv-x="1089" d="M66 0l245 1397h408q159 0 251 -112q71 -86 70 -201q0 -35 -6 -72q-9 -49 -33 -94t-60.5 -82.5t-57 -55.5t-52.5 -43q22 -15 41.5 -32.5t44.5 -48.5t37 -66q14 -36 22 -87q3 -20 3 -41q0 -32 -8 -67q-29 -164 -165 -279.5t-300 -115.5h-440zM254 160h278q96 0 177 69 t100 166q4 22 4 43q1 68 -43 122q-56 68 -154 69h-278zM367 791h245q90 0 166.5 65t93.5 156q3 21 3 40q0 68 -41 120q-53 66 -144 65h-246z" />
<glyph unicode="C" horiz-adv-x="1038" d="M92 336q1 -44 8.5 -83.5t30.5 -87.5t59.5 -82.5t101.5 -58.5t150 -24t157.5 21t120.5 55t86.5 75t60 82.5t36 75.5t19.5 55l4 21h-162q-2 -9 -6 -24t-25 -54t-50 -68.5t-86 -54t-128 -24.5q-52 0 -92 14t-62 37t-36.5 50.5t-18.5 55t-5 50.5t1 37l2 14l100 563 q1 5 3 14.5t12 36t23 50.5t37.5 53.5t54 51t74.5 36t97 14.5t92 -12.5t62 -32.5t37 -44t19.5 -47.5t6 -43.5t0.5 -33l-2 -12h162q2 0 4 21q2 13 2 31v24q-2 34 -10 75t-31.5 82.5t-60.5 75.5t-102 55t-150 21t-158.5 -23t-122 -59.5t-88 -81t-61.5 -89t-36.5 -81 t-19.5 -59.5l-5 -23l-101 -563q-1 -9 -3 -24q-1 -10 -1 -33v-25z" />
<glyph unicode="D" horiz-adv-x="1110" d="M66 0l245 1397h418q5 0 14 -0.5t38 -4t54 -11t62 -21t63 -34.5t57 -52t43 -72q10 -42 20 -97q3 -20 4 -41q0 -39 -11 -83l-100 -563q-2 -9 -5.5 -24t-19 -58.5t-36.5 -83t-61 -87.5t-88 -82.5t-121.5 -58.5t-158.5 -24h-417zM254 160h256q72 0 129 26.5t88 64.5t51.5 76 t26.5 65l6 26l100 563q5 31 5 58q0 19 -2 37q-6 40 -24.5 67.5t-42.5 45.5t-50 28t-47.5 14.5t-35.5 4.5l-14 1h-256z" />
<glyph unicode="E" horiz-adv-x="927" d="M92 389q33 179 211 309q-108 105 -108 244q0 32 6 66q15 82 54.5 149.5t91 111t113 73.5t119 42.5t109.5 12.5h307l-28 -160h-308q-15 -1 -28 -2t-41.5 -6.5t-52.5 -14.5t-54 -26.5t-52.5 -40.5t-41.5 -59t-27 -80q-4 -24 -4 -45q0 -33 10 -61q16 -46 43 -68t64.5 -36 t61.5 -17t43 -3h192l-29 -160h-192q-19 0 -43.5 -3t-67 -16.5t-77.5 -36t-66.5 -67.5t-42.5 -106q-4 -24 -4 -46q0 -32 9 -59q15 -45 42 -68t64.5 -36.5t61 -16.5t42.5 -3h307l-26 -160h-308q-53 0 -105.5 12.5t-104 42t-87.5 73t-52 111.5q-8 35 -8 74q0 36 7 76z" />
<glyph unicode="F" horiz-adv-x="841" d="M66 0l245 1397h609l-29 -160h-449l-90 -514h449l-29 -160h-448l-99 -563h-159z" />
<glyph unicode="G" d="M92 335q-1 15 -1 27q0 19 2 33l3 23l101 563q2 9 5.5 24t19 58t37 82.5t61 87.5t88 82.5t122 58t158.5 23.5q75 0 134.5 -17.5t96 -44t62 -64.5t37 -72.5t16.5 -74.5q5 -36 5 -60q0 -23 -3 -52h-162q0 9 -2 24t-14 54t-32.5 68.5t-64 54t-102.5 24.5q-72 0 -129 -26.5 t-88 -64t-51.5 -75t-26.5 -63.5l-6 -27l-100 -563q-1 -5 -2 -14.5t-0.5 -36.5t5 -51t18.5 -54t36 -51.5t62 -36t92 -14.5q72 0 129 26.5t88 64.5t51.5 76t26.5 65l6 26l27 145h-224l29 160h385l-55 -305q-15 -85 -50 -154.5t-79 -111.5t-94 -73.5t-97 -46t-85.5 -22.5 t-61.5 -9l-23 -1q-85 0 -150.5 23t-101.5 60t-59.5 81.5t-30 89t-8.5 81.5z" />
<glyph unicode="H" horiz-adv-x="1150" d="M66 0l245 1397h162l-100 -563h512l100 563h162l-246 -1397h-162l119 674h-512l-119 -674h-161z" />
<glyph unicode="I" horiz-adv-x="477" d="M66 0h161l246 1397h-162z" />
<glyph unicode="J" horiz-adv-x="757" d="M-31 274h160q5 -48 38.5 -81t82.5 -33q60 0 110.5 43t61.5 102l192 1092h160l-192 -1092q-23 -126 -128 -215.5t-231 -89.5q-117 0 -189 80q-66 71 -66 171q0 12 1 23z" />
<glyph unicode="K" horiz-adv-x="1087" d="M66 0l245 1397h162l-129 -725q109 125 345.5 394.5t289.5 330.5h197l-453 -518l258 -879h-186l-217 748l-269 -275l-82 -473h-161z" />
<glyph unicode="L" horiz-adv-x="786" d="M66 0h634l27 160h-473l219 1237h-162z" />
<glyph unicode="M" horiz-adv-x="1374" d="M66 0l245 1397h174l252 -592q73 94 242 312t217 280h174l-246 -1397h-159l196 1118q-427 -564 -481 -639l-258 639l-197 -1118h-159z" />
<glyph unicode="N" horiz-adv-x="1150" d="M66 0l245 1397h172l316 -1053l186 1053h162l-246 -1397h-172l-315 1067l-187 -1067h-161z" />
<glyph unicode="O" d="M92 335q-1 15 -1 27q0 19 2 33l3 23l101 563q2 9 5.5 24t19 58t37 82.5t61 87.5t88 82.5t122 58t158.5 23.5t150 -23t101 -59.5t59.5 -81t29.5 -89.5q6 -44 8 -80q0 -12 1 -23q0 -21 -2 -37l-3 -23l-100 -563q-2 -9 -5.5 -24t-19 -58.5t-36.5 -83t-61 -87.5t-88 -82.5 t-121.5 -58.5t-158.5 -24t-150.5 23t-101.5 60t-59.5 81.5t-30 89t-8.5 81.5zM256 367q0 -27 4.5 -51t18.5 -54t36 -51.5t62 -36t92 -14.5q72 0 129 26.5t88 64.5t51.5 76t26.5 65l6 26l100 563q1 5 2 15q1 6 1 20q-1 8 -1 16q0 26 -4.5 50t-18.5 53.5t-36 51t-62 36 t-92 14.5q-72 0 -129 -26.5t-88 -64t-51.5 -75t-26.5 -63.5l-6 -27l-100 -563q-1 -4 -2 -14q-1 -6 -1 -21q1 -7 1 -16z" />
<glyph unicode="P" horiz-adv-x="1048" d="M66 0l245 1395h418q5 0 14 -0.5t38 -4t54 -11t62 -21t63 -34.5t57 -52t43 -72q10 -42 20 -97q3 -20 4 -41q0 -39 -11 -83q-15 -85 -50.5 -154.5t-79.5 -111.5t-94 -73.5t-97 -46t-85.5 -22.5t-61.5 -9l-23 -1h-256l-99 -561h-161zM354 721h256q5 0 14.5 0.5t37 5.5t53 14 t58.5 28.5t59 45.5t48 68.5t31 95.5q5 31 5 58q0 19 -2 37q-6 40 -24.5 67.5t-42.5 45.5t-50 28t-47.5 14.5t-35.5 4.5l-14 1h-256z" />
<glyph unicode="Q" d="M92 340q-1 12 -1 22q0 20 2 34l3 22l101 563q2 9 5.5 24t19 58t37 82.5t61 87.5t88 82.5t122 58t158.5 23.5t150 -23t101 -59.5t59.5 -81t30 -89t7.5 -80.5q1 -13 1 -23q0 -22 -2 -37l-3 -23l-100 -563q-1 -6 -3.5 -16t-13 -41t-24 -61t-40 -70.5t-58.5 -76t-80.5 -71.5 t-104.5 -62q74 -93 113 -126q116 -107 268 -152q-15 -33 -34 -86t-29 -76q-160 47 -330 187q-107 104 -190 233q-77 7 -135.5 33.5t-91 64t-53.5 81t-27 85.5t-7 76zM256 367q0 -27 4.5 -51t18.5 -54t36 -51.5t62 -36t92 -14.5q53 0 98 14t75 37t54.5 50.5t38 55t22.5 50.5 t12 37l3 14l100 563q1 5 2 15q1 6 1 20q0 7 -1 16q0 26 -4.5 50t-18.5 53.5t-36.5 51t-62.5 36t-93 14.5q-72 0 -129 -26.5t-88 -64t-51.5 -75t-26.5 -63.5l-6 -27l-100 -563q-1 -5 -2 -14q-1 -7 -1 -21q0 -7 1 -16z" />
<glyph unicode="R" d="M66 0l245 1395h418q5 0 14 -0.5t38 -4t54 -11t62 -21t63 -34.5t57 -52t43 -72q10 -42 20 -97q3 -20 4 -41q0 -39 -11 -83q-13 -77 -47 -142t-75.5 -107.5t-95 -76t-99 -52t-94.5 -30.5q61 -170 217 -571h-185l-213 561h-155l-99 -561h-161zM354 721l271 2q21 2 46 7 t65 22t72.5 43t62 74t40.5 110q5 31 5 58q0 19 -2 37q-6 40 -24.5 67.5t-42.5 45.5t-50 28t-47.5 14.5t-35.5 4.5l-14 1h-256z" />
<glyph unicode="S" horiz-adv-x="987" d="M96 0l27 158h305q5 0 13.5 0.5t33.5 4.5t48.5 10.5t53 21t52.5 34t41.5 51t25.5 70.5q2 10 2 21q0 37 -22 73q-28 47 -78 89t-111.5 86t-122.5 91t-109.5 97t-73.5 112q-17 42 -17 86q0 21 4 42q28 164 163 257t316 93h303l-28 -160h-304q-5 0 -13.5 -0.5t-33.5 -4 t-48.5 -10t-53 -21t-52.5 -33.5t-41.5 -50.5t-25.5 -70.5q-2 -11 -2 -21q0 -36 22 -74q28 -48 77.5 -90t111.5 -86t123.5 -91.5t109.5 -97.5q48 -49 74 -111q18 -43 19 -88q0 -19 -4 -38q-30 -163 -165 -256.5t-315 -93.5h-305z" />
<glyph unicode="T" horiz-adv-x="823" d="M119 1235l28 160h836l-29 -160h-338l-217 -1235h-161l217 1235h-336z" />
<glyph unicode="U" horiz-adv-x="1110" d="M113 335q-1 15 -1 27q0 19 2 33l3 23l174 977h162l-174 -977q-1 -5 -2 -14.5t-1 -36.5t4.5 -51t18.5 -54t36 -51.5t62 -36t92 -14.5t97 14t75 37t54 50.5t38 55t23 50.5t12 37l3 14l174 977h161l-174 -977q-2 -9 -5 -24t-19 -58.5t-37 -83t-60.5 -87.5t-87.5 -82.5 t-121.5 -58.5t-158.5 -24t-150.5 23t-101.5 60t-59.5 81.5t-30 89t-8.5 81.5z" />
<glyph unicode="V" horiz-adv-x="964" d="M147 1395h168l129 -1090l514 1090h166l-675 -1395h-117z" />
<glyph unicode="W" horiz-adv-x="1310" d="M170 0l18 1395h160l-31 -1153l336 704h158l90 -704l369 1153h160l-476 -1395h-182l-76 758l-344 -758h-182z" />
<glyph unicode="X" horiz-adv-x="1036" d="M-37 0l459 700l-213 697h176l182 -592l389 592h179l-461 -697l213 -700h-176l-183 592l-389 -592h-176z" />
<glyph unicode="Y" horiz-adv-x="876" d="M127 1397h180l172 -631l400 631h178l-525 -795l-104 -602h-162l105 602z" />
<glyph unicode="Z" horiz-adv-x="987" d="M-16 0l26 158l846 1077h-655l28 160h836l-29 -160l-846 -1075h656l-27 -160h-835z" />
<glyph unicode="[" horiz-adv-x="618" d="M25 -338l307 1735h385l-29 -160h-225l-250 -1415h225l-28 -160h-385z" />
<glyph unicode="\" horiz-adv-x="624" d="M229 1397q8 -268 26 -806t26 -816h135q-8 274 -25.5 811.5t-25.5 810.5h-136z" />
<glyph unicode="]" horiz-adv-x="618" d="M-96 -338h383l307 1735h-385l-29 -160h226l-250 -1415h-226z" />
<glyph unicode="^" horiz-adv-x="1165" d="M43 289q84 100 240.5 284t240.5 285h232q246 -500 280 -571q-111 -69 -145 -90l-270 551q-79 -96 -256 -304.5t-209 -246.5q-15 12 -37 31t-39 32.5t-37 28.5z" />
<glyph unicode="_" horiz-adv-x="1200" d="M-78 0l17 104h1171l-16 -104h-1172z" />
<glyph unicode="`" horiz-adv-x="485" d="M258 1507h168q32 -90 94 -288h-121q-16 32 -44 90.5t-51.5 106.5t-45.5 91z" />
<glyph unicode="a" horiz-adv-x="1032" d="M98 305l80 451q1 6 3.5 17t14.5 42.5t27.5 60t44.5 63.5t65 60.5t89.5 42.5t116.5 17h415l-133 -754q-1 -5 -1.5 -13t1.5 -30t9.5 -40t27 -36t49.5 -24l-26 -160q-6 1 -16.5 4t-39.5 15.5t-55 27.5t-57 42t-51 59q-46 -63 -99 -106.5t-100 -43.5h-111q-12 0 -32.5 2 t-70.5 18.5t-85.5 45t-57.5 91.5q-14 38 -14 84q0 30 6 64zM260 305q-4 -19 -4 -35q0 -20 6 -36q10 -30 28.5 -43.5t38.5 -21t35 -8.5l15 -1h110q41 0 73.5 15t50.5 36t29.5 42.5t15.5 36.5l4 15l104 594h-256q-41 0 -73 -14.5t-49.5 -35.5t-29 -42.5t-14.5 -36.5l-4 -14z " />
<glyph unicode="b" horiz-adv-x="1017" d="M66 0l264 1509h162l-78 -450h256q12 0 32.5 -2t70 -18t85 -44.5t57.5 -90.5q13 -37 13 -83q0 -31 -6 -65l-80 -451q-11 -62 -36.5 -112.5t-58 -81.5t-69 -54t-71 -33.5t-62.5 -16.5t-45 -7h-17h-112q-22 0 -36 16.5t-17.5 40t-4 47t1.5 40.5l2 16l-186 -160h-65zM281 305 q-4 -19 -4 -35q-1 -20 5 -36q10 -30 28.5 -43.5t38 -21t33.5 -8.5l15 -1h113q40 0 72.5 15t49.5 36t29 42.5t15 36.5l4 15l80 451q3 17 3 32q1 20 -5 38q-10 30 -29 43t-39 20.5t-34 8.5l-15 1h-256z" />
<glyph unicode="c" horiz-adv-x="950" d="M96 192q8 -48 29.5 -81t50 -54t59.5 -33t57 -17t43 -6l17 -1h111q62 0 115 15t88 39.5t63 53.5t43.5 58t25.5 53.5t14 39.5l3 15h-162q-6 -32 -25 -55.5t-42 -34.5t-45 -17t-37 -7h-15h-110q-41 0 -68 15t-37 36t-14 42.5t-2 36.5l2 15l80 451q7 40 27 69.5t43.5 43 t46.5 21t38 8.5l15 1h111q39 0 65.5 -11.5t37 -28.5t15 -33.5t3.5 -27.5l-1 -12h166q6 32 6 60q0 22 -4 41q-8 43 -30.5 72.5t-51.5 48.5t-60.5 29.5t-57.5 15t-43 5.5l-17 1h-110q-63 0 -116.5 -16.5t-89.5 -43.5t-65 -59t-45 -64.5t-27 -59.5t-14 -44l-4 -16l-80 -451 q-6 -37 -6 -69q1 -23 4 -44z" />
<glyph unicode="d" horiz-adv-x="1032" d="M98 305l80 451q1 6 3.5 17t14.5 42.5t27.5 60t44.5 63.5t65 60.5t89.5 42.5t116.5 17h256l77 450h160l-211 -1204q-1 -5 -1.5 -13t1.5 -30t9.5 -40t27 -36t49.5 -24l-26 -160q-6 1 -16.5 4t-39.5 15.5t-55 27.5t-57 42t-51 59q-46 -63 -99 -106.5t-100 -43.5h-111 q-12 0 -32.5 2t-70.5 18.5t-85.5 45t-57.5 91.5q-14 38 -14 84q0 30 6 64zM260 305q-4 -19 -4 -35q0 -20 6 -36q10 -30 28.5 -43.5t38.5 -21t35 -8.5l15 -1h110q41 0 73.5 15t50.5 36t29.5 42.5t15.5 36.5l4 15l104 594h-256q-41 0 -73 -14.5t-49.5 -35.5t-29 -42.5 t-14.5 -36.5l-4 -14z" />
<glyph unicode="e" horiz-adv-x="958" d="M98 305l80 451q1 6 3.5 17t14.5 42.5t27.5 60t44.5 63.5t65 60.5t89.5 42.5t116.5 17h110q12 0 32.5 -2t70.5 -18t86 -45q36 -28 58 -90q14 -38 13 -84q0 -30 -6 -64q-1 -6 -3.5 -17.5t-14.5 -43t-27.5 -60.5t-45 -64.5t-65 -61t-89.5 -43t-117 -17.5h-256l-25 -144 q-1 -3 -1.5 -8t-0.5 -20.5t3 -29t10.5 -30t20 -29t35 -20.5t52.5 -8h418l-27 -160h-418q-12 0 -32.5 2t-70.5 18.5t-85.5 45t-57.5 91.5q-14 38 -14 84q0 30 6 64zM313 610h256q6 0 16 1t36.5 9t48 21.5t42.5 43.5t29 71q3 16 3 31q0 21 -6 39q-10 30 -29 43t-38.5 20.5 t-34.5 8.5l-15 1h-111q-6 0 -16 -1t-36 -8.5t-47.5 -21t-42.5 -43t-28 -69.5z" />
<glyph unicode="f" horiz-adv-x="591" d="M-111 -446l29 159q31 0 56.5 14.5t39.5 35.5t23.5 42t12.5 35l3 15l185 1044h-113l29 160h157q-84 93 -84 169q0 11 2 21q13 73 53.5 126.5t89.5 78t96 38.5t78 16l32 1h151l-27 -161h-151q-40 0 -72.5 -15t-49.5 -36t-29 -42t-16 -36l-3 -15q-1 -6 -2 -15.5t1 -34.5 t8.5 -44.5t24.5 -35t46 -15.5h192l-28 -160h-224l-184 -1044q-12 -69 -43.5 -123t-67 -85t-80 -52.5t-75 -29t-60.5 -11.5z" />
<glyph unicode="g" horiz-adv-x="1017" d="M33 -449l28 160h351q40 0 72 15t49 36t28.5 42t14.5 36l4 15l26 145h-256q-12 0 -32.5 2t-70 18.5t-85 45t-57.5 91.5q-13 37 -13 83q0 31 6 65l80 451q11 62 36.5 112t58 80.5t69 53.5t71 33.5t62.5 16.5t45 6l17 1h112q36 0 49 -39q8 -29 8 -57q0 -12 -1 -23l-5 -39 q18 15 53 44.5t77.5 65t58.5 48.5h65l-213 -1204q-11 -62 -36.5 -112t-58 -81t-69 -53.5t-70.5 -33t-62 -17t-45 -6.5l-17 -1h-350zM260 305q-4 -19 -4 -35q0 -19 6 -36q9 -29 27.5 -43t38.5 -21.5t34 -8.5l15 -1h256l106 596q3 17 3 32q0 21 -6 38q-9 29 -27.5 42.5 t-38.5 21t-34 8.5l-15 1h-113q-40 0 -72 -14.5t-49 -35.5t-28.5 -42.5t-14.5 -36.5l-4 -14z" />
<glyph unicode="h" horiz-adv-x="1028" d="M66 0l266 1513h162l-80 -454h256q12 0 32.5 -2t70 -18t85 -44.5t57.5 -90.5q13 -37 13 -83q0 -31 -6 -65l-134 -756h-161l133 756q3 17 3 32q1 20 -5 38q-10 30 -29 43t-39 20.5t-34 8.5l-15 1h-256l-158 -899h-161z" />
<glyph unicode="i" horiz-adv-x="489" d="M119 305l133 754h162l-133 -754q-1 -5 -1 -13t1.5 -30t8.5 -40t26.5 -36t48.5 -24l-27 -160q-11 2 -28.5 7t-60.5 27.5t-73 53.5q-30 30 -50 87q-12 34 -12 73q0 27 5 55zM303 1348l27 161h162l-27 -161h-162z" />
<glyph unicode="j" horiz-adv-x="481" d="M-119 -446l29 159q31 0 56.5 14.5t39.5 35.5t23.5 42t12.5 35l3 15l211 1200h160l-211 -1200q-12 -69 -43 -123t-66 -85t-79.5 -52.5t-75 -29t-60.5 -11.5zM309 1348l27 161h160l-27 -161h-160z" />
<glyph unicode="k" horiz-adv-x="919" d="M66 0l264 1509h159l-170 -964q324 343 480 514h202l-411 -443q58 -152 244 -616h-187l-207 522l-157 -186l-58 -336h-159z" />
<glyph unicode="l" horiz-adv-x="491" d="M119 305l211 1204h159l-210 -1204q-1 -5 -1 -13t2 -30t10 -40t27.5 -36t49.5 -24l-27 -160q-11 2 -28.5 7t-61 27.5t-74.5 53.5q-30 30 -50 87q-12 34 -12 73q0 27 5 55z" />
<glyph unicode="m" horiz-adv-x="1363" d="M66 0l186 1059h65l132 -158q8 44 22 76.5t28.5 47.5t27.5 23.5t21 9.5l9 1q53 0 92 -15.5t60 -40.5t30.5 -44.5t14.5 -40.5q5 6 13.5 15.5t36.5 33.5t56.5 43t69 34t78.5 15q62 0 109 -16.5t73 -43.5t43 -59t21 -64q4 -33 6 -60q1 -12 1 -21q0 -13 -1 -23l-3 -16 l-133 -756h-159l133 756q1 6 2 15.5t-3 34t-14 43.5t-37 34.5t-67 15.5q-41 0 -73 -14.5t-49.5 -35.5t-29 -42.5t-15.5 -36.5l-3 -14l-133 -756h-162l133 756q3 17 3 32q0 20 -6 38q-10 30 -28.5 43t-38.5 20.5t-35 8.5l-14 1q-41 0 -73 -14.5t-49.5 -35.5t-29 -42.5 t-14.5 -36.5l-4 -14l-133 -756h-159z" />
<glyph unicode="n" horiz-adv-x="1030" d="M66 0h161l131 754q1 6 3.5 15.5t15 34.5t30 44.5t50 35t73.5 15.5h111q6 0 15.5 -1t33.5 -8.5t40 -21.5q18 -14 28 -44q6 -17 5 -37q0 -16 -3 -33l-131 -754h162l133 760q6 37 5 68q-1 24 -3 44q-8 48 -29.5 80t-50 53t-59.5 32t-57 16t-43 5l-17 1h-111q-3 0 -9 -1 t-21.5 -9.5t-28.5 -23.5t-28 -48t-23 -78l-130 160h-67z" />
<glyph unicode="o" horiz-adv-x="997" d="M98 305l80 451q1 6 3.5 17t14.5 42.5t27.5 60t44.5 63.5t64.5 60.5t89 42.5t115.5 17h112q12 0 32.5 -2t70 -18t85 -44.5t57.5 -90.5q13 -37 13 -83q0 -31 -6 -65l-80 -451q-1 -6 -3.5 -17t-14 -43t-27 -60.5t-44.5 -64t-64.5 -60.5t-89 -42.5t-115.5 -17.5h-113 q-12 0 -32.5 2t-70 18.5t-85 45t-57.5 91.5q-13 37 -13 83q0 31 6 65zM258 285q0 -10 2 -30q4 -25 14 -44.5t36.5 -35t66.5 -15.5h112q3 0 8 0.5t20.5 3t30 7.5t33 16t33 25.5t27 38.5t18.5 54l80 451q1 3 1 8v7v13q0 15 -2.5 28.5t-10.5 30t-20 28.5t-34.5 20t-51.5 8h-113 q-6 0 -15.5 -1t-35.5 -8.5t-47.5 -21t-42 -43t-27.5 -69.5l-80 -451q-2 -13 -2 -20z" />
<glyph unicode="p" horiz-adv-x="1019" d="M-14 -449l266 1508h67l130 -158q1 6 3.5 17t11.5 38t20.5 48t31.5 38t43 17h111q12 0 32.5 -2t70.5 -18t85.5 -44.5t57.5 -90.5q14 -38 14 -84q0 -30 -6 -64l-80 -451q-11 -62 -36.5 -112.5t-58 -81.5t-69.5 -54t-71.5 -33.5t-63 -16.5t-45.5 -7h-17h-256l-80 -449h-161z M254 160h256q6 0 16 1t36.5 8.5t48 21.5t42.5 43.5t29 70.5l80 451q2 9 2 18q0 10 -4 32q-3 24 -13.5 43t-37.5 34.5t-68 15.5h-111q-6 0 -16 -1t-36 -8.5t-47.5 -21t-42.5 -43t-28 -69.5z" />
<glyph unicode="q" horiz-adv-x="1017" d="M98 305l80 451q11 62 36.5 112t58 80.5t69 53.5t71 33.5t62.5 16.5t45 6l17 1h112q36 0 49 -39q8 -29 8 -57q0 -12 -1 -23l-5 -39q18 15 53 44.5t77.5 65t58.5 48.5h65l-266 -1508h-162l80 449h-256q-12 0 -32.5 2t-70 18.5t-85 45t-57.5 91.5q-13 37 -13 83q0 31 6 65z M260 305q-4 -19 -4 -35q0 -19 6 -36q9 -29 27.5 -43t38.5 -21.5t34 -8.5l15 -1h256l106 596q3 17 3 32q0 21 -6 38q-9 29 -27.5 42.5t-38.5 21t-34 8.5l-15 1h-113q-40 0 -72 -14.5t-49 -35.5t-28.5 -42.5t-14.5 -36.5l-4 -14z" />
<glyph unicode="r" horiz-adv-x="700" d="M129 305l133 754h66l133 -158q1 6 3.5 17t11.5 38t20 48t30 38t41 17h193l-29 -160h-192q-6 0 -15.5 -1t-35.5 -8.5t-47.5 -21t-42 -43t-27.5 -69.5l-80 -451q-1 -5 -1 -13t1.5 -30t9 -40t27 -36t49.5 -24l-27 -160q-11 2 -28.5 7t-61 27.5t-74.5 53.5q-30 30 -50 87 q-12 34 -12 73q0 27 5 55z" />
<glyph unicode="s" horiz-adv-x="897" d="M63 0h349q6 0 17.5 0.5t44 6t63.5 15.5t70 31t69.5 50t56 75.5t35.5 104.5q7 28 7 53q1 17 -3 33q-8 39 -19.5 68t-38 53.5t-51.5 41.5t-60 31.5t-64 24.5t-64 21q-3 1 -4 1q-49 15 -77.5 26t-58 28t-40.5 39.5t-6 52.5q7 40 27 69.5t44 43t46.5 21t37.5 8.5l15 1h348 l29 160h-349q-6 0 -17.5 -0.5t-44.5 -6t-63.5 -15.5t-70 -31t-70 -50t-56.5 -75.5t-36 -104.5q-5 -39 -5 -71v-7q0 -34 14 -62.5t29.5 -51t40.5 -40.5t49 -31.5t54.5 -25t57 -20t55.5 -17.5q3 -1 4 -1q35 -11 53 -17t45 -16.5t40 -20t26.5 -23t17 -30.5t0.5 -37 q-8 -41 -28.5 -70.5t-44 -43.5t-46.5 -21.5t-38 -8.5l-15 -1h-348z" />
<glyph unicode="t" horiz-adv-x="647" d="M141 899l4 27q55 62 157 179.5t157 178.5h20l-39 -225h226l-29 -160h-225l-105 -594q-1 -6 -2 -15.5t2.5 -34.5t14 -44.5t38 -35t68.5 -15.5h78l-27 -160h-78q-12 0 -32.5 2t-70.5 18.5t-86 45.5q-36 28 -58 91q-14 38 -13 84q0 30 6 64l105 594h-111z" />
<glyph unicode="u" horiz-adv-x="1042" d="M109 305l133 754h161l-133 -754q-4 -19 -4 -35q0 -20 6 -36q10 -30 28 -43.5t38 -21t34 -8.5l15 -1h113q40 0 72.5 15t49.5 36t29 42.5t15 36.5l4 15l133 754h160l-134 -754q-1 -5 -1.5 -13t2 -30t10 -40t27.5 -36t51 -24l-27 -160q-6 1 -16.5 4t-39.5 15.5t-55 27.5 t-57 42t-51 59q-115 -150 -199 -150h-113q-12 0 -32.5 2t-70 18.5t-84.5 45t-57 91.5q-13 37 -13 83q0 31 6 65z" />
<glyph unicode="v" horiz-adv-x="843" d="M109 1059h170l83 -873l394 873h168l-504 -1059h-178z" />
<glyph unicode="w" horiz-adv-x="1472" d="M109 1059h167l82 -866l379 776h154l104 -776l389 866h168l-505 -1059h-177l-96 752l-356 -752h-176z" />
<glyph unicode="x" horiz-adv-x="862" d="M-57 0l376 530l-190 529h174l146 -426l299 426h174l-379 -529l192 -530h-174l-149 426l-295 -426h-174z" />
<glyph unicode="y" horiz-adv-x="1028" d="M43 -449l29 160h350q40 0 72 15t49 36t28.5 42t14.5 36l4 15l26 145h-256q-12 0 -32.5 2t-70 18.5t-84.5 45t-57 91.5q-13 37 -13 83q0 31 6 65l133 754h161l-133 -754q-4 -19 -4 -35q0 -19 6 -36q9 -29 27.5 -43t38.5 -21.5t34 -8.5l15 -1h256l160 899h162l-213 -1204 q-11 -62 -36.5 -112t-58 -81t-69 -53.5t-71 -33t-62.5 -17t-45 -6.5l-17 -1h-350z" />
<glyph unicode="z" horiz-adv-x="800" d="M4 0l21 121l557 778h-420l28 160h609l-21 -117l-545 -782h406l-27 -160h-608z" />
<glyph unicode="{" horiz-adv-x="655" d="M25 469q30 -5 60 -14.5t67 -27.5t56.5 -50t12.5 -72l-59 -338q-8 -30 -5 -64.5t9.5 -68.5t27 -65t48 -55t71 -38t97.5 -14h36l29 160h-37q-41 0 -68.5 13.5t-37.5 34.5t-13.5 47.5t3.5 51.5l59 336q1 4 1.5 11t1 27.5t-2.5 38.5t-12.5 40.5t-25 39t-43 27.5t-64.5 11 l10 59q50 0 91 20.5t63 49.5t37 57.5t19 49.5l5 20l57 336q14 78 62 110.5t110 34.5h35l29 160h-37q-49 0 -102 -17t-106.5 -50.5t-94.5 -95.5t-56 -142l-57 -336q-6 -33 -34 -62t-65 -46.5t-72.5 -31t-59.5 -18.5l-25 -6z" />
<glyph unicode="|" horiz-adv-x="417" d="M4 -338h102l308 1735h-103z" />
<glyph unicode="}" horiz-adv-x="655" d="M-96 -338l26 160h37q78 0 118.5 43t51.5 104l60 336q1 8 4.5 21t19.5 46.5t37.5 59.5t62.5 47t91 21l10 59q-50 0 -84 20.5t-45.5 49.5t-16.5 57.5t-2 49.5l2 20l58 336q24 141 -119 145h-35l29 160h37q38 0 76 -10t75.5 -32.5t62 -58t36 -86.5t-1.5 -118l-58 -336 q-6 -33 12 -62t48 -46.5t60.5 -31t52.5 -18.5l22 -6l-21 -123q-32 -5 -66 -14.5t-77 -27.5t-73.5 -50t-37.5 -72l-59 -338q-7 -38 -24 -78t-48 -81.5t-70 -73.5t-95.5 -52t-120.5 -20h-35z" />
<glyph unicode="~" horiz-adv-x="1228" d="M72 451q15 49 43 94.5t70.5 86.5t105 66t135.5 25q42 0 79 -10t59.5 -21t49.5 -34t36.5 -34t31.5 -36q32 -38 46.5 -52.5t41 -26t64.5 -11.5q66 0 106.5 34t56.5 82q31 0 82 -1t78 -1q-13 -48 -40.5 -94t-69.5 -87.5t-104.5 -67t-135.5 -25.5q-41 0 -79 10.5t-60 20.5 t-51 35t-37 34t-33 37h2q-41 51 -69.5 69.5t-82.5 18.5q-127 0 -161 -114z" />
<glyph unicode="&#xa1;" horiz-adv-x="487" d="M49 2h205l31 176q13 129 35 387.5t34 384.5h-75q-34 -138 -101 -393t-98 -379zM287 1239h162l28 160h-162z" />
<glyph unicode="&#xa2;" horiz-adv-x="1058" d="M147 700q25 142 116 263t223.5 192.5t273.5 73.5l63 168h97l-64 -174q120 -20 211 -99l-121 -127q-66 56 -149 68l-267 -725q42 -10 82 -10q123 0 232 73l74 -129q-158 -104 -334 -104q-60 0 -113 12l-65 -182h-95l78 211q-136 61 -203.5 193.5t-38.5 295.5zM307 700 q-20 -105 19.5 -192.5t122.5 -134.5l251 694q-141 -15 -254.5 -120.5t-138.5 -246.5z" />
<glyph unicode="&#xa3;" horiz-adv-x="968" d="M-35 0h836l26 160h-657q10 4 26 11.5t58.5 32.5t76 53t64.5 72t39 89q6 29 7.5 64.5t1 53t-3.5 64.5t-3 53h365l16 92h-393q-10 124 8 236q4 23 12.5 49t31 65t53.5 69t85 51.5t121 21.5h193l28 160h-192q-88 0 -166 -27.5t-132 -71t-96 -99.5t-65.5 -111t-32.5 -107 q-19 -106 -2 -236h-174l-16 -92h199q10 -136 -7 -235q-8 -48 -40 -91.5t-71.5 -71.5t-78 -49t-64.5 -30l-26 -10q-4 -23 -8.5 -50t-9.5 -60.5t-9 -55.5z" />
<glyph unicode="&#xa4;" horiz-adv-x="1437" d="M-45 80l356 301q-86 155 -57 317q26 161 170 318q-44 53 -136.5 164.5t-113.5 136.5l76 63l250 -299q176 113 338 113q161 0 297 -113q279 235 354 299l53 -63l-354 -301q85 -148 57 -318q-30 -167 -170 -317l248 -301l-74 -66l-250 303q-174 -116 -335 -116 q-170 0 -299 116l-355 -303zM416 698q-25 -138 56 -237t220 -99q138 0 253 99t140 237q23 137 -57 236.5t-217 99.5q-139 0 -255.5 -99.5t-139.5 -236.5z" />
<glyph unicode="&#xa5;" horiz-adv-x="954" d="M70 268l16 94h281l30 175h-280l16 94h266q-147 495 -231 766h176l174 -633q52 82 191 305t206 328h179l-504 -766h266l-16 -94h-281l-31 -175h281l-16 -94h-281l-49 -270h-162l49 270h-280z" />
<glyph unicode="&#xa6;" horiz-adv-x="419" d="M4 -338l129 723h105l-129 -723h-105zM184 674l127 723h105l-127 -723h-105z" />
<glyph unicode="&#xa7;" horiz-adv-x="915" d="M76 -225l28 162h306q3 0 8 0.5t20.5 3t30 7.5t33 16t33 25.5t27 38.5t18.5 54q7 40 -2.5 69.5t-28.5 43t-39 21t-34 8.5l-15 1h-113q-12 0 -32.5 2t-70 18.5t-85 45t-57.5 91.5t-7 148q33 176 221 281q-154 102 -122 281q11 62 37 112.5t58.5 81.5t69 54t71 33.5 t62.5 16.5t45 6l17 1h305l-29 -160h-305q-3 0 -8 -0.5t-20.5 -3t-30 -7.5t-33 -16t-33 -25.5t-27 -38.5t-18.5 -54q-7 -40 2.5 -69.5t28.5 -43t39 -21.5t34 -9l15 -1h113q12 0 32.5 -2t70 -18.5t85 -45.5t57.5 -92t7 -149q-17 -92 -74.5 -161.5t-122.5 -106.5q1 0 10 -6 t15 -11t17.5 -14.5t19.5 -21.5t17.5 -28.5t15 -37.5t9 -46t2 -57.5t-7.5 -68.5q-11 -63 -37 -113.5t-58.5 -81.5t-69 -54.5t-71 -34t-62.5 -16.5t-45 -6l-17 -1h-305zM256 514.5q-1 -9.5 3 -34.5t14 -44.5t37 -35t67 -15.5h112q6 0 15.5 1t35.5 8.5t47.5 21.5t42 43.5 t27.5 70.5l21 111q1 6 2 15.5t-3 34.5t-14 44.5t-37 35t-67 15.5h-113q-6 0 -15.5 -1t-35.5 -8.5t-47 -21.5t-41.5 -43.5t-27.5 -70.5l-21 -111q-1 -6 -2 -15.5z" />
<glyph unicode="&#xa8;" horiz-adv-x="729" d="M215 1264l33 178h180l-33 -178h-180zM592 1264l33 178h180l-33 -178h-180z" />
<glyph unicode="&#xa9;" horiz-adv-x="1630" d="M147 698q33 189 155.5 350.5t300 256t366.5 94.5t333.5 -94.5t209.5 -256t32 -350.5q-26 -142 -104 -271t-188 -222.5t-248.5 -149t-280.5 -55.5q-189 0 -334 93.5t-210.5 254.5t-31.5 350zM287 698q-27 -151 24.5 -280t166.5 -204t267 -75t294.5 75t240.5 204t125 280 q26 152 -26 281.5t-167.5 205t-267.5 75.5t-294 -75.5t-239.5 -205t-123.5 -281.5zM498 700q18 105 82.5 188t154 127t187.5 44q141 0 227 -96l-105 -91q-62 62 -147 62q-104 0 -179 -66.5t-93 -169.5q-19 -105 32.5 -169t157.5 -64q94 0 170 61q17 -19 42.5 -52t29.5 -38 q-125 -98 -262 -98q-161 0 -243.5 100.5t-53.5 261.5z" />
<glyph unicode="&#xaa;" horiz-adv-x="585" d="M86 524l14 88h414l-14 -88h-414zM117 698l14 88h414l-15 -88h-413zM174 1028q5 28 19 51.5t37.5 41t46.5 30t60 24t62.5 18.5t69 17.5t66.5 16.5l4 20q5 35 -11.5 49.5t-44.5 14.5h-215l17 88h215q57 0 98 -38t29 -114l-39 -219q-9 -56 -56 -105t-124 -49h-107 q-25 0 -49.5 8.5t-45 25.5t-30 48.5t-2.5 71.5zM260 1028q-5 -33 11.5 -48t43.5 -17h107q36 0 55 19.5t23 45.5l18 109q-14 -3 -41.5 -9t-43.5 -9.5t-41 -10t-40 -12t-33.5 -13t-29 -15.5t-19 -18.5t-10.5 -21.5z" />
<glyph unicode="&#xab;" horiz-adv-x="1163" d="M55 530q80 70 233 207.5t236 210.5h185l-463 -418q57 -75 166.5 -220.5t148.5 -196.5h-184zM526 530q77 68 231.5 205.5t239.5 212.5h185l-463 -418q161 -215 315 -417h-184z" />
<glyph unicode="&#xac;" horiz-adv-x="1007" d="M104 629l29 162h836l-88 -498h-162l59 336h-674z" />
<glyph unicode="&#xad;" horiz-adv-x="780" d="M72 449l28 161h609l-29 -161h-608z" />
<glyph unicode="&#xae;" horiz-adv-x="1017" d="M164 975q31 174 178.5 299t321.5 125t275.5 -125t70.5 -299q-31 -175 -176 -298.5t-320 -123.5q-115 0 -202.5 56.5t-127.5 153.5t-20 212zM258 975q-23 -137 56.5 -234.5t215.5 -97.5q135 0 248.5 98t136.5 234q25 136 -54 233t-214 97q-136 0 -250 -96.5t-139 -233.5z M397 780l68 387h192q42 0 72.5 -29t20.5 -85q-6 -35 -27.5 -60t-40.5 -33l-18 -8l65 -172h-72l-55 164h-117l-28 -164h-60zM496 1001h133q53 0 61 52q5 29 -8.5 42t-34.5 13h-133z" />
<glyph unicode="&#xaf;" horiz-adv-x="686" d="M223 1307h514l21 112h-514z" />
<glyph unicode="&#xb0;" horiz-adv-x="563" d="M205 1200q14 82 81.5 140.5t149.5 58.5q81 0 127.5 -58.5t32.5 -140.5q-14 -80 -81 -138t-148 -58t-128.5 58t-33.5 138zM289 1200q-7 -46 19.5 -78t72.5 -32q45 0 84.5 32.5t46.5 77.5q7 47 -20 79t-72 32q-46 0 -85 -32t-46 -79z" />
<glyph unicode="&#xb1;" horiz-adv-x="894" d="M-6 0l26 160h723l-26 -160h-723zM102 618l29 160h281l49 281h162l-50 -281h281l-29 -160h-280l-49 -280h-162l49 280h-281z" />
<glyph unicode="&#xb2;" horiz-adv-x="620" d="M135 674l21 117q14 8 38 23t86.5 61.5t112 93.5t95 112.5t55.5 124.5q14 73 -64 82h-71q-67 0 -89 -71q-25 0 -58 2t-52 2q20 70 76.5 123t142.5 53h70q31 0 60.5 -10.5t55.5 -31.5t37.5 -60t1.5 -89q-11 -65 -53 -132.5t-93.5 -117.5t-101 -90.5t-83.5 -61.5l-33 -22 h291l-19 -108h-426z" />
<glyph unicode="&#xb3;" horiz-adv-x="620" d="M143 854h113q-5 -32 10.5 -50t33.5 -20l19 -2h70q22 0 39.5 9.5t27.5 22.5t16.5 26t8.5 22l2 10q3 19 2.5 34.5t-2 26.5t-7.5 20t-9.5 14.5t-13.5 10t-14 6t-15.5 3t-13.5 1.5t-13 1h-26q2 18 8.5 48t7.5 36h19q32 0 57 12.5t38.5 30.5t23 35.5t11.5 30.5l3 12 q1 4 1.5 10t-1 22t-6.5 28t-19.5 22t-36.5 10h-69h-7t-16.5 -3.5t-23 -10t-22.5 -21t-20 -34.5h-112q3 7 8.5 19.5t26 43.5t44 54.5t62 43t80.5 19.5h70q2 0 6.5 -0.5t17.5 -2t24 -5t28 -9.5t28.5 -16t25.5 -24t19.5 -33.5t9.5 -45t-4 -57.5q-13 -79 -108 -170 q33 -42 46 -76.5t5 -83.5q-10 -55 -37 -95.5t-58.5 -59.5t-61.5 -30.5t-50 -12.5l-20 -2h-68q-40 0 -70.5 13.5t-46.5 32.5t-26 45.5t-12.5 47t-2.5 41.5z" />
<glyph unicode="&#xb4;" horiz-adv-x="485" d="M207 1219h123l105 126t136 162h-168q-187 -275 -196 -288z" />
<glyph unicode="&#xb5;" horiz-adv-x="1052" d="M-14 -449l266 1508h162l-133 -754q-8 -41 1.5 -70.5t28 -43.5t38 -21.5t33.5 -8.5l15 -1h113q40 0 72.5 15t49.5 36t29 42.5t15 36.5l4 15l133 754h160l-133 -754q-1 -5 -1.5 -13t1.5 -30t9.5 -40t27.5 -36t51 -24l-27 -160q-6 1 -16.5 4t-39.5 15.5t-55 27.5t-57 42 t-51 59q-115 -150 -199 -150h-112q-50 0 -140 31l-84 -480h-161z" />
<glyph unicode="&#xb6;" horiz-adv-x="1138" d="M135 981q29 166 162 286.5t297 129.5l-148 -834q-161 9 -250.5 130t-60.5 288zM485 -225l287 1622h92l-286 -1622h-93zM756 -225l286 1622h93l-287 -1622h-92z" />
<glyph unicode="&#xb7;" horiz-adv-x="370" d="M70 432l34 197h199l-35 -197h-198z" />
<glyph unicode="&#xb8;" horiz-adv-x="503" d="M-84 -442h66q130 0 205.5 47t88.5 119q7 42 -3 75t-30 50t-39 25.5t-34 8.5l33 187h-133l-35 -203h2q43 0 70 -33t20 -76q-7 -44 -46.5 -77t-82.5 -33h-68z" />
<glyph unicode="&#xb9;" horiz-adv-x="555" d="M113 674l18 108h137l88 504h-137l21 111h245l-108 -615h137l-18 -108h-383z" />
<glyph unicode="&#xba;" horiz-adv-x="585" d="M86 524l14 88h414l-14 -88h-414zM117 698l14 88h414l-15 -88h-413zM174 1028l39 219q1 6 3.5 16.5t15.5 36.5t31 46t52.5 36.5t77.5 16.5h109q6 0 16 -1t35 -9t42.5 -22.5t28.5 -45.5t3 -74l-39 -219q-1 -6 -3.5 -16.5t-15.5 -37t-30.5 -47t-51.5 -37t-77 -16.5h-109 q-6 0 -16.5 1t-35.5 9t-42.5 22.5t-29 46.5t-3.5 75zM261 1011.5q-3 -14.5 11 -31.5t43 -17h109q3 0 7.5 0.5t16.5 3.5t21.5 9.5t19.5 20t13 31.5l39 219q-2 2 0 16.5t-12.5 31t-43.5 16.5h-108q-3 0 -7.5 -0.5t-16.5 -4t-21.5 -9.5t-18.5 -19t-12 -31l-39 -219 q2 -2 -1 -16.5z" />
<glyph unicode="&#xbb;" horiz-adv-x="1163" d="M-18 113h184q198 173 471 417q-25 33 -324 418h-184q238 -314 315 -418zM455 113h184q120 105 469 417q-134 176 -322 418h-184q180 -237 316 -418z" />
<glyph unicode="&#xbc;" horiz-adv-x="1484" d="M143 674l19 108h137l88 504h-137l20 111h246l-108 -615h137l-19 -108h-383zM195 0l1081 1397h123l-1082 -1397h-122zM834 135l22 121q27 50 256 465h121l-275 -477h181l24 137h113l-25 -137h66l-19 -109h-65l-25 -137h-112l24 137h-286z" />
<glyph unicode="&#xbd;" horiz-adv-x="1511" d="M143 674l19 108h135l88 504h-135l20 111h246l-108 -615h137l-19 -108h-383zM195 0l1081 1397h123l-1082 -1397h-122zM877 0l20 117q14 8 38 23t86.5 61.5t112 93.5t95 112.5t55.5 124.5q14 73 -63 82h-72q-66 0 -88 -71h-113q22 71 79 125.5t142 54.5h70q31 0 60.5 -10.5 t55.5 -31.5t38 -60t2 -89q-11 -65 -53 -132t-93.5 -117t-101.5 -91t-83 -62l-34 -21h291l-18 -109h-426z" />
<glyph unicode="&#xbe;" horiz-adv-x="1488" d="M174 854h111q-5 -32 11 -50t35 -20l19 -2h68q22 0 40.5 9.5t28 22.5t16.5 26t9 22l2 10q6 39 0 64.5t-22.5 35.5t-29.5 13t-31 4h-3h-29q2 18 9 47.5t8 36.5h20q32 0 57 12.5t38.5 30.5t23 35.5t11.5 30.5l3 12q1 4 1.5 10t-1 22t-6.5 28t-20 22t-37 10h-68h-6.5 t-16.5 -3.5t-23 -10t-23.5 -21t-20.5 -34.5h-110q3 7 8.5 19.5t26 43.5t44 54.5t62 43t80.5 19.5h67q2 0 6.5 -0.5t17.5 -2t24.5 -5t28.5 -9.5t28.5 -16t25.5 -24t19.5 -33.5t9.5 -45t-4 -57.5q-13 -80 -107 -170q33 -41 45.5 -76t4.5 -84q-10 -55 -37 -95.5t-58.5 -59.5 t-62 -30.5t-50.5 -12.5l-20 -2h-65q-50 0 -84 19t-49 49.5t-20.5 57.5t-4.5 54zM193 0l1081 1397h123l-1082 -1397h-122zM836 137l22 121q27 50 256 465h123l-272 -477h180l22 137h113l-23 -137h66l-20 -109h-66l-23 -137h-112l22 137h-288z" />
<glyph unicode="&#xbf;" horiz-adv-x="894" d="M48.5 191q-12.5 51 0.5 118q8 47 28 89.5t56.5 86.5t61 69.5t73.5 72.5q17 17 58 55.5t63.5 62t52 59t47.5 72t27 76.5h98q-27 -136 -88.5 -236.5t-152.5 -191.5q-56 -55 -82 -82t-50 -64t-30 -69q-7 -41 0.5 -70.5t27 -44.5t41.5 -22t48 -8h112q50 2 95.5 29t66.5 83 h164q-17 -73 -58 -128.5t-92.5 -85t-102.5 -44t-99 -14.5h-113q-39 0 -77 10t-76 32.5t-62.5 58t-37 86.5zM504 1202l35 197h198l-35 -197h-198z" />
<glyph unicode="&#xc0;" horiz-adv-x="944" d="M-98 0l616 1397h213l127 -1397h-162l-22 225h-512l-99 -225h-161zM236 385h421l-47 840h-32zM393 1810h168q32 -90 94 -288h-120q-117 240 -142 288z" />
<glyph unicode="&#xc1;" horiz-adv-x="944" d="M-98 0l616 1397h213l127 -1397h-162l-22 225h-512l-99 -225h-161zM236 385h421l-47 840h-32zM528 1522h123q239 284 242 288h-168q-132 -194 -197 -288z" />
<glyph unicode="&#xc2;" horiz-adv-x="944" d="M-98 0l616 1397h213l127 -1397h-162l-22 225h-512l-99 -225h-161zM236 385h421l-47 840h-32zM307 1524h146q28 29 88 92t84 88l112 -180h146l-183 288h-112q-229 -233 -281 -288z" />
<glyph unicode="&#xc3;" horiz-adv-x="944" d="M-98 0l616 1397h213l127 -1397h-162l-22 225h-512l-99 -225h-161zM236 385h421l-47 840h-32zM291 1542q27 79 92.5 163.5t126.5 84.5q12 0 24 -2.5t29 -11l24 -12t29.5 -17t24.5 -14.5q3 -2 16.5 -10t18 -10.5t16 -8.5t17.5 -8.5t15.5 -6t17 -5t14.5 -1.5q32 0 60.5 22 t41.5 42.5t23 42.5h71q-16 -49 -49 -104.5t-81 -99.5t-91 -44q-11 0 -23 3t-28 11t-24 11.5t-29.5 16.5t-24.5 15q-6 3 -23.5 13.5t-25.5 14.5t-22 10.5t-25.5 9t-22.5 2.5q-71 0 -123 -107h-69z" />
<glyph unicode="&#xc4;" horiz-adv-x="944" d="M-98 0l616 1397h213l127 -1397h-162l-22 225h-512l-99 -225h-161zM236 385h421l-47 840h-32zM322 1567l32 178h181l-33 -178h-180zM698 1567l33 178h180l-32 -178h-181z" />
<glyph unicode="&#xc5;" horiz-adv-x="944" d="M-98 0l616 1397h213l127 -1397h-162l-22 225h-512l-99 -225h-161zM236 385h421l-47 840h-32zM430 1665q13 78 78.5 134t142.5 56q78 0 124.5 -56t33.5 -134q-14 -77 -79.5 -132.5t-143.5 -55.5q-77 0 -123 56t-33 132zM518 1665q-8 -43 15.5 -71.5t66.5 -28.5t77.5 28.5 t41.5 71.5t-17 71.5t-67 28.5t-76 -28.5t-41 -71.5z" />
<glyph unicode="&#xc6;" horiz-adv-x="1611" d="M-119 0l953 1397h286l-12 -72q156 72 268 72h303l-28 -160h-305q-15 -1 -28 -2t-42 -6.5t-52.5 -14.5t-53 -26.5t-51.5 -40.5t-41 -59t-27 -80q-10 -60 5 -105.5t42 -68t64.5 -36.5t61.5 -17t44 -3h192l-28 -160h-193q-21 0 -45.5 -3t-67 -16.5t-77 -36t-65.5 -67.5 t-42 -106q-10 -60 5 -105t41.5 -68t63.5 -36.5t61 -16.5t44 -3h303l-26 -160h-304q-115 0 -243 74l-13 -74h-159l39 225h-545l-152 -225h-176zM317 385h463l4 31q35 153 205 280q-130 137 -100 312l35 196h-54z" />
<glyph unicode="&#xc7;" horiz-adv-x="1038" d="M91.5 343.5q0.5 -39.5 6 -76t24 -82.5t48 -81.5t83 -63.5t124.5 -36l-23 -137h2q43 0 70 -33t20 -76q-7 -44 -46.5 -77t-82.5 -33h-67l-14 -90h65q130 0 206 47t89 119q7 42 -3.5 75t-30.5 50t-39 25.5t-34 8.5l21 121q72 8 134 33.5t103.5 59.5t74.5 73.5t52 77 t31.5 68.5t16.5 50l4 19h-162q-2 -9 -6 -24t-25 -54t-50 -68.5t-86 -54t-128 -24.5q-52 0 -92 14t-62 37t-36.5 50.5t-18.5 55t-5 50.5t1 37l2 14l100 563q1 5 3 14.5t12 36t23 50.5t37.5 53.5t54 51t74.5 36t97 14.5t92 -12.5t62 -32.5t37 -44t19.5 -47.5t6 -43.5t0.5 -33 l-2 -12h162q2 0 4.5 21t1 55t-9.5 75t-31.5 82.5t-60.5 75.5t-102 55t-150 21t-158.5 -23t-122 -59.5t-88 -81t-61.5 -89t-36.5 -81t-19.5 -59.5l-5 -23l-101 -563q-1 -8 -3 -21.5t-1.5 -53z" />
<glyph unicode="&#xc8;" horiz-adv-x="927" d="M92 389q33 179 211 309q-133 130 -102 310q15 82 54.5 149.5t91 111t113 73.5t119 42.5t109.5 12.5h307l-28 -160h-308q-15 -1 -28 -2t-41.5 -6.5t-52.5 -14.5t-54 -26.5t-52.5 -40.5t-41.5 -59t-27 -80q-10 -60 5.5 -105.5t43 -68t65 -36.5t61.5 -17t43 -3h192l-29 -160 h-192q-19 0 -43.5 -3t-67 -16.5t-77.5 -36t-66.5 -67.5t-42.5 -106q-10 -60 5 -105t42 -68t64.5 -36.5t61 -16.5t42.5 -3h307l-26 -160h-308q-53 0 -105.5 12.5t-104 42t-87.5 73t-52 111.5t-1 150zM457 1810h168q32 -90 94 -288h-121q-16 32 -44 90.5t-51.5 106.5t-45.5 91 z" />
<glyph unicode="&#xc9;" horiz-adv-x="927" d="M92 389q33 179 211 309q-133 130 -102 310q15 82 54.5 149.5t91 111t113 73.5t119 42.5t109.5 12.5h307l-28 -160h-308q-15 -1 -28 -2t-41.5 -6.5t-52.5 -14.5t-54 -26.5t-52.5 -40.5t-41.5 -59t-27 -80q-10 -60 5.5 -105.5t43 -68t65 -36.5t61.5 -17t43 -3h192l-29 -160 h-192q-19 0 -43.5 -3t-67 -16.5t-77.5 -36t-66.5 -67.5t-42.5 -106q-10 -60 5 -105t42 -68t64.5 -36.5t61 -16.5t42.5 -3h307l-26 -160h-308q-53 0 -105.5 12.5t-104 42t-87.5 73t-52 111.5t-1 150zM592 1522h123l105 126t136 162h-168q-187 -275 -196 -288z" />
<glyph unicode="&#xca;" horiz-adv-x="927" d="M92 389q33 179 211 309q-133 130 -102 310q15 82 54.5 149.5t91 111t113 73.5t119 42.5t109.5 12.5h307l-28 -160h-308q-15 -1 -28 -2t-41.5 -6.5t-52.5 -14.5t-54 -26.5t-52.5 -40.5t-41.5 -59t-27 -80q-10 -60 5.5 -105.5t43 -68t65 -36.5t61.5 -17t43 -3h192l-29 -160 h-192q-19 0 -43.5 -3t-67 -16.5t-77.5 -36t-66.5 -67.5t-42.5 -106q-10 -60 5 -105t42 -68t64.5 -36.5t61 -16.5t42.5 -3h307l-26 -160h-308q-53 0 -105.5 12.5t-104 42t-87.5 73t-52 111.5t-1 150zM371 1524h145q28 29 88 92t84 88l113 -180h145q-30 48 -91 144t-91 144 h-113q-192 -196 -280 -288z" />
<glyph unicode="&#xcb;" horiz-adv-x="927" d="M92 389q33 179 211 309q-133 130 -102 310q15 82 54.5 149.5t91 111t113 73.5t119 42.5t109.5 12.5h307l-28 -160h-308q-15 -1 -28 -2t-41.5 -6.5t-52.5 -14.5t-54 -26.5t-52.5 -40.5t-41.5 -59t-27 -80q-10 -60 5.5 -105.5t43 -68t65 -36.5t61.5 -17t43 -3h192l-29 -160 h-192q-19 0 -43.5 -3t-67 -16.5t-77.5 -36t-66.5 -67.5t-42.5 -106q-10 -60 5 -105t42 -68t64.5 -36.5t61 -16.5t42.5 -3h307l-26 -160h-308q-53 0 -105.5 12.5t-104 42t-87.5 73t-52 111.5t-1 150zM385 1567l33 178h180l-33 -178h-180zM762 1567l33 178h180l-33 -178h-180z " />
<glyph unicode="&#xcc;" horiz-adv-x="477" d="M66 0h161l246 1397h-162zM162 1810h168q32 -90 94 -288h-121q-16 32 -44 90.5t-51.5 106.5t-45.5 91z" />
<glyph unicode="&#xcd;" horiz-adv-x="477" d="M66 0h161l246 1397h-162zM297 1522h123q239 284 242 288h-168q-132 -194 -197 -288z" />
<glyph unicode="&#xce;" horiz-adv-x="477" d="M66 0h161l246 1397h-162zM76 1524h145q28 29 88 92t84 88l113 -180h145q-31 48 -91.5 144t-90.5 144h-113q-192 -196 -280 -288z" />
<glyph unicode="&#xcf;" horiz-adv-x="477" d="M66 0h161l246 1397h-162zM90 1567l33 178h180l-33 -178h-180zM467 1567l33 178h180l-33 -178h-180z" />
<glyph unicode="&#xd0;" horiz-adv-x="1107" d="M-2 612l184 70l127 715h418q5 0 14 -0.5t38 -4t54 -11t62 -21t63 -34.5t57 -52t42.5 -72.5t21 -96.5t-7.5 -124l-100 -563q-2 -9 -5.5 -24t-19 -58.5t-36.5 -83t-61 -87.5t-88 -82.5t-121.5 -58.5t-158.5 -24h-418l101 580q-17 -5 -70.5 -26t-73.5 -28zM250 160h258 q72 0 129 26.5t88 64.5t51.5 76t26.5 65l6 26l100 563q9 54 2.5 94.5t-24.5 68t-42 45.5t-50 28t-47.5 14.5t-35.5 4.5l-14 1h-258l-86 -489q72 25 170 63q6 -31 17 -86l-205 -78z" />
<glyph unicode="&#xd1;" horiz-adv-x="1150" d="M66 0l245 1397h172l316 -1053l186 1053h162l-246 -1397h-172l-315 1067l-187 -1067h-161zM397 1542q27 79 92.5 163.5t126.5 84.5q10 0 21.5 -3t20.5 -6t24 -10.5t21 -11t23.5 -14t21.5 -12.5q3 -2 19 -11.5t21 -12t18 -9.5t20 -9.5t17.5 -5t18.5 -2.5q32 0 60.5 22 t41.5 42.5t23 42.5h72q-16 -49 -49 -104.5t-81 -99.5t-91 -44q-11 0 -23 3t-28 11t-24 11.5t-29.5 16.5t-24.5 15q-6 3 -23.5 13.5t-25.5 14.5t-22 10.5t-25.5 9t-22.5 2.5q-71 0 -123 -107h-70z" />
<glyph unicode="&#xd2;" d="M92 335q-2 37 1 60l3 23l101 563q2 9 5.5 24t19 58t37 82.5t61 87.5t88 82.5t122 58t158.5 23.5t150 -23t101 -59.5t59.5 -81t30 -89t8 -81t-1.5 -59.5l-3 -23l-100 -563q-2 -9 -5.5 -24t-19 -58.5t-36.5 -83t-61 -87.5t-88 -82.5t-121.5 -58.5t-158.5 -24t-150.5 23 t-101.5 60t-59.5 81.5t-30 89t-8.5 81.5zM255.5 367q0.5 -27 5 -51t18.5 -54t36 -51.5t62 -36t92 -14.5q72 0 129 26.5t88 64.5t51.5 76t26.5 65l6 26l100 563q1 5 2 14.5t0.5 36t-5 50.5t-18.5 53.5t-36 51t-62 36t-92 14.5q-72 0 -129 -26.5t-88 -64t-51.5 -75 t-26.5 -63.5l-6 -27l-100 -563q-1 -5 -2 -14.5t-0.5 -36.5zM457 1810h168q32 -90 94 -288h-121q-16 32 -44 90.5t-51.5 106.5t-45.5 91z" />
<glyph unicode="&#xd3;" d="M92 335q-2 37 1 60l3 23l101 563q2 9 5.5 24t19 58t37 82.5t61 87.5t88 82.5t122 58t158.5 23.5t150 -23t101 -59.5t59.5 -81t30 -89t8 -81t-1.5 -59.5l-3 -23l-100 -563q-2 -9 -5.5 -24t-19 -58.5t-36.5 -83t-61 -87.5t-88 -82.5t-121.5 -58.5t-158.5 -24t-150.5 23 t-101.5 60t-59.5 81.5t-30 89t-8.5 81.5zM255.5 367q0.5 -27 5 -51t18.5 -54t36 -51.5t62 -36t92 -14.5q72 0 129 26.5t88 64.5t51.5 76t26.5 65l6 26l100 563q1 5 2 14.5t0.5 36t-5 50.5t-18.5 53.5t-36 51t-62 36t-92 14.5q-72 0 -129 -26.5t-88 -64t-51.5 -75 t-26.5 -63.5l-6 -27l-100 -563q-1 -5 -2 -14.5t-0.5 -36.5zM592 1522h123l105 126t136 162h-168q-187 -275 -196 -288z" />
<glyph unicode="&#xd4;" d="M92 335q-2 37 1 60l3 23l101 563q2 9 5.5 24t19 58t37 82.5t61 87.5t88 82.5t122 58t158.5 23.5t150 -23t101 -59.5t59.5 -81t30 -89t8 -81t-1.5 -59.5l-3 -23l-100 -563q-2 -9 -5.5 -24t-19 -58.5t-36.5 -83t-61 -87.5t-88 -82.5t-121.5 -58.5t-158.5 -24t-150.5 23 t-101.5 60t-59.5 81.5t-30 89t-8.5 81.5zM255.5 367q0.5 -27 5 -51t18.5 -54t36 -51.5t62 -36t92 -14.5q72 0 129 26.5t88 64.5t51.5 76t26.5 65l6 26l100 563q1 5 2 14.5t0.5 36t-5 50.5t-18.5 53.5t-36 51t-62 36t-92 14.5q-72 0 -129 -26.5t-88 -64t-51.5 -75 t-26.5 -63.5l-6 -27l-100 -563q-1 -5 -2 -14.5t-0.5 -36.5zM371 1524h145q28 29 88 92t84 88l113 -180h145q-30 48 -91 144t-91 144h-113q-192 -196 -280 -288z" />
<glyph unicode="&#xd5;" d="M92 335q-2 37 1 60l3 23l101 563q2 9 5.5 24t19 58t37 82.5t61 87.5t88 82.5t122 58t158.5 23.5t150 -23t101 -59.5t59.5 -81t30 -89t8 -81t-1.5 -59.5l-3 -23l-100 -563q-2 -9 -5.5 -24t-19 -58.5t-36.5 -83t-61 -87.5t-88 -82.5t-121.5 -58.5t-158.5 -24t-150.5 23 t-101.5 60t-59.5 81.5t-30 89t-8.5 81.5zM255.5 367q0.5 -27 5 -51t18.5 -54t36 -51.5t62 -36t92 -14.5q72 0 129 26.5t88 64.5t51.5 76t26.5 65l6 26l100 563q1 5 2 14.5t0.5 36t-5 50.5t-18.5 53.5t-36 51t-62 36t-92 14.5q-72 0 -129 -26.5t-88 -64t-51.5 -75 t-26.5 -63.5l-6 -27l-100 -563q-1 -5 -2 -14.5t-0.5 -36.5zM354 1542q27 79 92.5 163.5t126.5 84.5q10 0 21.5 -3t20.5 -6t24 -10.5t21 -11t23.5 -14t21.5 -12.5q3 -2 19 -11.5t21 -12t18 -9.5t20 -9.5t17.5 -5t18.5 -2.5q32 0 60.5 22t41.5 42.5t23 42.5h72 q-16 -49 -49 -104.5t-81 -99.5t-91 -44q-11 0 -23 3t-28 11t-24 11.5t-29.5 16.5t-24.5 15q-6 3 -23.5 13.5t-25.5 14.5t-22 10.5t-25.5 9t-22.5 2.5q-71 0 -123 -107h-70z" />
<glyph unicode="&#xd6;" d="M92 335q-2 37 1 60l3 23l101 563q2 9 5.5 24t19 58t37 82.5t61 87.5t88 82.5t122 58t158.5 23.5t150 -23t101 -59.5t59.5 -81t30 -89t8 -81t-1.5 -59.5l-3 -23l-100 -563q-2 -9 -5.5 -24t-19 -58.5t-36.5 -83t-61 -87.5t-88 -82.5t-121.5 -58.5t-158.5 -24t-150.5 23 t-101.5 60t-59.5 81.5t-30 89t-8.5 81.5zM255.5 367q0.5 -27 5 -51t18.5 -54t36 -51.5t62 -36t92 -14.5q72 0 129 26.5t88 64.5t51.5 76t26.5 65l6 26l100 563q1 5 2 14.5t0.5 36t-5 50.5t-18.5 53.5t-36 51t-62 36t-92 14.5q-72 0 -129 -26.5t-88 -64t-51.5 -75 t-26.5 -63.5l-6 -27l-100 -563q-1 -5 -2 -14.5t-0.5 -36.5zM385 1567l33 178h180l-33 -178h-180zM762 1567l33 178h180l-33 -178h-180z" />
<glyph unicode="&#xd7;" horiz-adv-x="872" d="M45 291l281 239l-197 238l129 113l199 -240l280 240l92 -113l-282 -238l198 -239l-133 -111l-196 238l-281 -240z" />
<glyph unicode="&#xd8;" horiz-adv-x="1048" d="M-14 35l123 153q-18 54 -24 111.5t-3 88.5l4 30l100 563q2 9 5.5 24t19.5 58t37 82.5t61 87.5t88.5 82.5t122 58t158.5 23.5q163 0 278 -111q46 61 97 121q15 -9 25.5 -17t22.5 -18.5t19 -15.5l-121 -152q18 -53 24 -108.5t3 -85.5l-4 -29l-100 -563q-2 -9 -5.5 -24 t-19 -58.5t-36.5 -83t-61 -87.5t-88 -82.5t-121.5 -58.5t-158.5 -24q-164 0 -278 109q-11 -13 -46 -59.5t-51 -65.5zM238 354l600 783q-61 100 -189 100q-72 0 -129 -26.5t-88 -64t-51.5 -75t-26.5 -63.5l-6 -27zM270 258q67 -98 189 -98q72 0 129 26.5t88 64.5t51.5 76 t26.5 65l6 26l110 618z" />
<glyph unicode="&#xd9;" horiz-adv-x="1110" d="M113 335q-2 37 1 60l3 23l174 977h162l-174 -977q-1 -5 -2 -14.5t-1 -36.5t4.5 -51t18.5 -54t36 -51.5t62 -36t92 -14.5t97 14t75 37t54 50.5t38 55t23 50.5t12 37l3 14l174 977h161l-174 -977q-2 -9 -5 -24t-19 -58.5t-37 -83t-60.5 -87.5t-87.5 -82.5t-121.5 -58.5 t-158.5 -24t-150.5 23t-101.5 60t-59.5 81.5t-30 89t-8.5 81.5zM477 1810h168q32 -90 94 -288h-121q-16 32 -44 90.5t-51.5 106.5t-45.5 91z" />
<glyph unicode="&#xda;" horiz-adv-x="1110" d="M113 335q-2 37 1 60l3 23l174 977h162l-174 -977q-1 -5 -2 -14.5t-1 -36.5t4.5 -51t18.5 -54t36 -51.5t62 -36t92 -14.5t97 14t75 37t54 50.5t38 55t23 50.5t12 37l3 14l174 977h161l-174 -977q-2 -9 -5 -24t-19 -58.5t-37 -83t-60.5 -87.5t-87.5 -82.5t-121.5 -58.5 t-158.5 -24t-150.5 23t-101.5 60t-59.5 81.5t-30 89t-8.5 81.5zM612 1522h123q239 284 242 288h-168q-132 -194 -197 -288z" />
<glyph unicode="&#xdb;" horiz-adv-x="1110" d="M113 335q-2 37 1 60l3 23l174 977h162l-174 -977q-1 -5 -2 -14.5t-1 -36.5t4.5 -51t18.5 -54t36 -51.5t62 -36t92 -14.5t97 14t75 37t54 50.5t38 55t23 50.5t12 37l3 14l174 977h161l-174 -977q-2 -9 -5 -24t-19 -58.5t-37 -83t-60.5 -87.5t-87.5 -82.5t-121.5 -58.5 t-158.5 -24t-150.5 23t-101.5 60t-59.5 81.5t-30 89t-8.5 81.5zM391 1524h146q28 29 88 92t84 88l112 -180h146l-183 288h-112q-229 -233 -281 -288z" />
<glyph unicode="&#xdc;" horiz-adv-x="1110" d="M113 335q-2 37 1 60l3 23l174 977h162l-174 -977q-1 -5 -2 -14.5t-1 -36.5t4.5 -51t18.5 -54t36 -51.5t62 -36t92 -14.5t97 14t75 37t54 50.5t38 55t23 50.5t12 37l3 14l174 977h161l-174 -977q-2 -9 -5 -24t-19 -58.5t-37 -83t-60.5 -87.5t-87.5 -82.5t-121.5 -58.5 t-158.5 -24t-150.5 23t-101.5 60t-59.5 81.5t-30 89t-8.5 81.5zM406 1567l32 178h180l-32 -178h-180zM782 1567l33 178h180l-32 -178h-181z" />
<glyph unicode="&#xdd;" horiz-adv-x="876" d="M127 1397h180l172 -631l400 631h178l-525 -795l-104 -602h-162l105 602zM496 1522h122q239 284 242 288h-168q-187 -275 -196 -288z" />
<glyph unicode="&#xde;" horiz-adv-x="1048" d="M66 0l245 1397h162l-51 -289h256q5 0 14 -0.5t38 -4t54 -11t62 -21t63 -35t57 -52.5t42.5 -73t21 -97t-7.5 -124q-15 -85 -50.5 -154t-79.5 -111t-94.5 -73t-97.5 -45.5t-85.5 -22.5t-61.5 -9l-23 -1h-256l-47 -274h-161zM303 434h256q5 0 14.5 0.5t37 5.5t53 14t58.5 28 t59 45t48 68.5t31 94.5q9 55 2.5 95.5t-24.5 68.5t-42 46t-50 27.5t-47.5 14t-35.5 5.5l-14 1h-256z" />
<glyph unicode="&#xdf;" horiz-adv-x="1132" d="M-111 -446l29 159q31 0 55.5 14.5t38.5 35.5t23.5 42t12.5 35l3 15l238 1349q11 62 36.5 112.5t58 81.5t69.5 54t71.5 33.5t62.5 16.5t45 6l17 1h92q12 0 32.5 -2t70 -18.5t85 -45t57.5 -91.5t7 -148q-6 -38 -23.5 -73.5t-51 -75t-52 -58.5t-61.5 -61q-47 -47 -66 -67 t-41.5 -53t-27.5 -60t2.5 -48.5t32 -39.5t44.5 -28.5t62 -29.5q43 -19 71 -34t65.5 -43t57.5 -57.5t31 -74t2 -96.5q-11 -62 -36.5 -112.5t-58 -81.5t-69 -54t-70.5 -33.5t-62 -16.5t-45 -7h-17h-193l27 160h193q6 0 16 1t36.5 8.5t48 21.5t42.5 43.5t29 70.5 q6 34 -3.5 60.5t-38 48t-51.5 33.5t-69 32q-21 9 -34 14.5t-33 15.5t-33 18t-30 20t-28 24t-23 27t-18 31.5t-10.5 36t-4.5 42.5t5 48q5 29 19 59t27 50t42 51.5t41.5 43t46.5 44.5q67 61 103 106t44 94q8 40 -1.5 69.5t-28 43t-38 21.5t-33.5 9l-15 1h-92q-41 0 -73.5 -15 t-50 -36t-29.5 -42t-16 -36l-3 -15l-238 -1349q-12 -69 -43 -123t-66 -85t-79.5 -52.5t-75 -29t-60.5 -11.5z" />
<glyph unicode="&#xe0;" horiz-adv-x="1032" d="M98 305l80 451q1 6 3.5 17t14.5 42.5t27.5 60t44.5 63.5t65 60.5t89.5 42.5t116.5 17h415l-133 -754q-1 -5 -1.5 -13t1.5 -30t9.5 -40t27 -36t49.5 -24l-26 -160q-6 1 -16.5 4t-39.5 15.5t-55 27.5t-57 42t-51 59q-46 -63 -99 -106.5t-100 -43.5h-111q-12 0 -32.5 2 t-70.5 18.5t-85.5 45t-58 91.5t-7.5 148zM260 305q-8 -41 1.5 -70.5t28.5 -43.5t39 -21.5t35 -8.5l15 -1h110q41 0 73.5 15t50.5 36t29.5 42.5t15.5 36.5l4 15l104 594h-256q-41 0 -73 -14.5t-49.5 -35.5t-29 -42.5t-14.5 -36.5l-4 -14zM426 1507h168q32 -90 94 -288h-121 q-16 32 -44 90.5t-51.5 106.5t-45.5 91z" />
<glyph unicode="&#xe1;" horiz-adv-x="1032" d="M98 305l80 451q1 6 3.5 17t14.5 42.5t27.5 60t44.5 63.5t65 60.5t89.5 42.5t116.5 17h415l-133 -754q-1 -5 -1.5 -13t1.5 -30t9.5 -40t27 -36t49.5 -24l-26 -160q-6 1 -16.5 4t-39.5 15.5t-55 27.5t-57 42t-51 59q-46 -63 -99 -106.5t-100 -43.5h-111q-12 0 -32.5 2 t-70.5 18.5t-85.5 45t-58 91.5t-7.5 148zM260 305q-8 -41 1.5 -70.5t28.5 -43.5t39 -21.5t35 -8.5l15 -1h110q41 0 73.5 15t50.5 36t29.5 42.5t15.5 36.5l4 15l104 594h-256q-41 0 -73 -14.5t-49.5 -35.5t-29 -42.5t-14.5 -36.5l-4 -14zM561 1219h123q239 284 242 288h-168 q-132 -194 -197 -288z" />
<glyph unicode="&#xe2;" horiz-adv-x="1032" d="M98 305l80 451q1 6 3.5 17t14.5 42.5t27.5 60t44.5 63.5t65 60.5t89.5 42.5t116.5 17h415l-133 -754q-1 -5 -1.5 -13t1.5 -30t9.5 -40t27 -36t49.5 -24l-26 -160q-6 1 -16.5 4t-39.5 15.5t-55 27.5t-57 42t-51 59q-46 -63 -99 -106.5t-100 -43.5h-111q-12 0 -32.5 2 t-70.5 18.5t-85.5 45t-58 91.5t-7.5 148zM260 305q-8 -41 1.5 -70.5t28.5 -43.5t39 -21.5t35 -8.5l15 -1h110q41 0 73.5 15t50.5 36t29.5 42.5t15.5 36.5l4 15l104 594h-256q-41 0 -73 -14.5t-49.5 -35.5t-29 -42.5t-14.5 -36.5l-4 -14zM340 1221h145q28 29 88 92t84 88 l113 -180h145q-30 48 -90.5 144t-91.5 144h-112q-229 -233 -281 -288z" />
<glyph unicode="&#xe3;" horiz-adv-x="1032" d="M98 305l80 451q1 6 3.5 17t14.5 42.5t27.5 60t44.5 63.5t65 60.5t89.5 42.5t116.5 17h415l-133 -754q-1 -5 -1.5 -13t1.5 -30t9.5 -40t27 -36t49.5 -24l-26 -160q-6 1 -16.5 4t-39.5 15.5t-55 27.5t-57 42t-51 59q-46 -63 -99 -106.5t-100 -43.5h-111q-12 0 -32.5 2 t-70.5 18.5t-85.5 45t-58 91.5t-7.5 148zM260 305q-8 -41 1.5 -70.5t28.5 -43.5t39 -21.5t35 -8.5l15 -1h110q41 0 73.5 15t50.5 36t29.5 42.5t15.5 36.5l4 15l104 594h-256q-41 0 -73 -14.5t-49.5 -35.5t-29 -42.5t-14.5 -36.5l-4 -14zM324 1239q27 79 92.5 163.5 t126.5 84.5q12 0 24 -2.5t29 -11l24 -12t29.5 -17t24.5 -14.5q3 -2 19 -11.5t21 -12t18 -9.5t20 -9.5t17.5 -5t18.5 -2.5q32 0 60.5 22t41.5 42.5t23 42.5h72q-16 -49 -49 -104.5t-81 -99.5t-91 -44q-11 0 -23 3t-28 11t-24 11.5t-29.5 16.5t-24.5 15q-6 3 -23.5 13.5 t-25.5 14.5t-22 10.5t-25.5 9t-22.5 2.5q-71 0 -123 -107h-69z" />
<glyph unicode="&#xe4;" horiz-adv-x="1032" d="M98 305l80 451q1 6 3.5 17t14.5 42.5t27.5 60t44.5 63.5t65 60.5t89.5 42.5t116.5 17h415l-133 -754q-1 -5 -1.5 -13t1.5 -30t9.5 -40t27 -36t49.5 -24l-26 -160q-6 1 -16.5 4t-39.5 15.5t-55 27.5t-57 42t-51 59q-46 -63 -99 -106.5t-100 -43.5h-111q-12 0 -32.5 2 t-70.5 18.5t-85.5 45t-58 91.5t-7.5 148zM260 305q-8 -41 1.5 -70.5t28.5 -43.5t39 -21.5t35 -8.5l15 -1h110q41 0 73.5 15t50.5 36t29.5 42.5t15.5 36.5l4 15l104 594h-256q-41 0 -73 -14.5t-49.5 -35.5t-29 -42.5t-14.5 -36.5l-4 -14zM354 1264l33 178h180l-32 -178h-181z M731 1264l33 178h180l-33 -178h-180z" />
<glyph unicode="&#xe5;" horiz-adv-x="1032" d="M98 305l80 451q1 6 3.5 17t14.5 42.5t27.5 60t44.5 63.5t65 60.5t89.5 42.5t116.5 17h415l-133 -754q-1 -5 -1.5 -13t1.5 -30t9.5 -40t27 -36t49.5 -24l-26 -160q-6 1 -16.5 4t-39.5 15.5t-55 27.5t-57 42t-51 59q-46 -63 -99 -106.5t-100 -43.5h-111q-12 0 -32.5 2 t-70.5 18.5t-85.5 45t-58 91.5t-7.5 148zM260 305q-8 -41 1.5 -70.5t28.5 -43.5t39 -21.5t35 -8.5l15 -1h110q41 0 73.5 15t50.5 36t29.5 42.5t15.5 36.5l4 15l104 594h-256q-41 0 -73 -14.5t-49.5 -35.5t-29 -42.5t-14.5 -36.5l-4 -14zM463 1362q13 78 78.5 134t142.5 56 q78 0 124.5 -56t33.5 -134q-14 -77 -80 -132.5t-144 -55.5q-77 0 -122.5 56t-32.5 132zM551 1362q-8 -43 15.5 -71.5t66.5 -28.5t77.5 28.5t41.5 71.5t-17 71.5t-67 28.5t-76 -28.5t-41 -71.5z" />
<glyph unicode="&#xe6;" horiz-adv-x="1515" d="M98 305l80 451q1 6 3.5 17t14 42.5t27 60t44.5 63.5t64.5 60.5t88.5 42.5t115 17h673q12 0 32.5 -2t70 -18t85 -44.5t57.5 -91t7 -147.5q-1 -6 -3.5 -17.5t-14.5 -43t-27.5 -60.5t-45 -64.5t-65 -61t-89 -43t-115.5 -17.5h-256l-25 -144q-1 -3 -1.5 -8t0 -20.5t3 -29 t10 -30t20 -29t35 -20.5t52.5 -8h416l-27 -160h-416q-7 0 -18.5 1t-44.5 9t-63 22.5t-65.5 45.5t-60.5 74q-123 -152 -198 -152h-113q-12 0 -32.5 2t-69.5 18.5t-84 45t-57 91.5t-7 148zM258 305q-8 -41 1.5 -70.5t28 -43.5t38.5 -21.5t34 -8.5l15 -1h112q40 0 72.5 15 t49.5 36t29 42.5t16 36.5l3 15l105 594h-256q-40 0 -72 -14.5t-49 -35.5t-28.5 -42.5t-14.5 -36.5l-4 -14zM872 610h256q6 0 16 1t36.5 9t48 21.5t42.5 43.5t29 71q7 40 -3 69.5t-28.5 43t-38.5 21t-35 8.5l-15 1h-256z" />
<glyph unicode="&#xe7;" horiz-adv-x="950" d="M98 305q-13 -77 3 -135.5t46.5 -89t73 -50t70.5 -24.5t51 -6l-23 -133h3q43 0 70 -33t20 -76q-7 -44 -46.5 -77t-82.5 -33h-68l-14 -90h65q130 0 206 47t89 119q7 42 -3 75t-30 50t-39 25.5t-34 8.5l20 117q60 1 111 17t85 40t61 53t42 58t25 52.5t13 38.5l3 15h-162 q-6 -32 -25 -55.5t-42 -34.5t-45 -17t-37 -7h-15h-110q-41 0 -68 15t-37 36t-14 42.5t-2 36.5l2 15l80 451q7 40 27 69.5t43.5 43t46.5 21t38 8.5l15 1h111q39 0 65.5 -11.5t37 -28.5t15 -33.5t3.5 -27.5l-1 -12h166q10 58 2 101t-30.5 72.5t-51.5 48.5t-60.5 29.5t-57.5 15 t-43 5.5l-17 1h-110q-63 0 -116.5 -16.5t-89.5 -43.5t-65 -59t-45 -64.5t-27 -59.5t-14 -44l-4 -16z" />
<glyph unicode="&#xe8;" horiz-adv-x="958" d="M98 305l80 451q1 6 3.5 17t14.5 42.5t27.5 60t44.5 63.5t65 60.5t89.5 42.5t116.5 17h110q12 0 32.5 -2t70.5 -18t85.5 -44.5t58 -91t7.5 -147.5q-1 -6 -3.5 -17.5t-14.5 -43t-27.5 -60.5t-45 -64.5t-65 -61t-89.5 -43t-117 -17.5h-256l-25 -144q-1 -3 -1.5 -8t0 -20.5 t3 -29t10 -30t20 -29t35 -20.5t52.5 -8h418l-27 -160h-418q-12 0 -32.5 2t-70.5 18.5t-85.5 45t-58 91.5t-7.5 148zM313 610h256q6 0 16 1t36.5 9t48 21.5t42.5 43.5t29 71q7 40 -3 69.5t-29 43t-38.5 21t-34.5 8.5l-15 1h-111q-6 0 -16 -1t-36 -8.5t-47.5 -21t-42.5 -43 t-28 -69.5zM422 1507h168q32 -90 94 -288h-121q-16 32 -44 90.5t-51.5 106.5t-45.5 91z" />
<glyph unicode="&#xe9;" horiz-adv-x="958" d="M98 305l80 451q1 6 3.5 17t14.5 42.5t27.5 60t44.5 63.5t65 60.5t89.5 42.5t116.5 17h110q12 0 32.5 -2t70.5 -18t85.5 -44.5t58 -91t7.5 -147.5q-1 -6 -3.5 -17.5t-14.5 -43t-27.5 -60.5t-45 -64.5t-65 -61t-89.5 -43t-117 -17.5h-256l-25 -144q-1 -3 -1.5 -8t0 -20.5 t3 -29t10 -30t20 -29t35 -20.5t52.5 -8h418l-27 -160h-418q-12 0 -32.5 2t-70.5 18.5t-85.5 45t-58 91.5t-7.5 148zM313 610h256q6 0 16 1t36.5 9t48 21.5t42.5 43.5t29 71q7 40 -3 69.5t-29 43t-38.5 21t-34.5 8.5l-15 1h-111q-6 0 -16 -1t-36 -8.5t-47.5 -21t-42.5 -43 t-28 -69.5zM557 1219h123q239 284 242 288h-168q-132 -194 -197 -288z" />
<glyph unicode="&#xea;" horiz-adv-x="958" d="M98 305l80 451q1 6 3.5 17t14.5 42.5t27.5 60t44.5 63.5t65 60.5t89.5 42.5t116.5 17h110q12 0 32.5 -2t70.5 -18t85.5 -44.5t58 -91t7.5 -147.5q-1 -6 -3.5 -17.5t-14.5 -43t-27.5 -60.5t-45 -64.5t-65 -61t-89.5 -43t-117 -17.5h-256l-25 -144q-1 -3 -1.5 -8t0 -20.5 t3 -29t10 -30t20 -29t35 -20.5t52.5 -8h418l-27 -160h-418q-12 0 -32.5 2t-70.5 18.5t-85.5 45t-58 91.5t-7.5 148zM313 610h256q6 0 16 1t36.5 9t48 21.5t42.5 43.5t29 71q7 40 -3 69.5t-29 43t-38.5 21t-34.5 8.5l-15 1h-111q-6 0 -16 -1t-36 -8.5t-47.5 -21t-42.5 -43 t-28 -69.5zM336 1221h145q28 29 88 92t84 88l113 -180h145q-31 48 -91.5 144t-90.5 144h-113q-192 -196 -280 -288z" />
<glyph unicode="&#xeb;" horiz-adv-x="958" d="M98 305l80 451q1 6 3.5 17t14.5 42.5t27.5 60t44.5 63.5t65 60.5t89.5 42.5t116.5 17h110q12 0 32.5 -2t70.5 -18t85.5 -44.5t58 -91t7.5 -147.5q-1 -6 -3.5 -17.5t-14.5 -43t-27.5 -60.5t-45 -64.5t-65 -61t-89.5 -43t-117 -17.5h-256l-25 -144q-1 -3 -1.5 -8t0 -20.5 t3 -29t10 -30t20 -29t35 -20.5t52.5 -8h418l-27 -160h-418q-12 0 -32.5 2t-70.5 18.5t-85.5 45t-58 91.5t-7.5 148zM313 610h256q6 0 16 1t36.5 9t48 21.5t42.5 43.5t29 71q7 40 -3 69.5t-29 43t-38.5 21t-34.5 8.5l-15 1h-111q-6 0 -16 -1t-36 -8.5t-47.5 -21t-42.5 -43 t-28 -69.5zM350 1264l33 178h180l-33 -178h-180zM727 1264l33 178h180l-33 -178h-180z" />
<glyph unicode="&#xec;" horiz-adv-x="489" d="M119 305l133 754h162l-133 -754q-1 -5 -1.5 -13t1.5 -30t9 -40t26.5 -36t48.5 -24l-27 -160q-11 2 -28.5 7t-60.5 27.5t-73.5 53t-50 87.5t-6.5 128zM162 1507h168q32 -90 94 -288h-121z" />
<glyph unicode="&#xed;" horiz-adv-x="489" d="M119 305l133 754h162l-133 -754q-1 -5 -1.5 -13t1.5 -30t9 -40t26.5 -36t48.5 -24l-27 -160q-11 2 -28.5 7t-60.5 27.5t-73.5 53t-50 87.5t-6.5 128zM297 1219h123q239 284 242 288h-168q-132 -194 -197 -288z" />
<glyph unicode="&#xee;" horiz-adv-x="489" d="M76 1221h145q28 29 88 92t84 88l113 -180h145q-31 48 -91.5 144t-90.5 144h-113q-192 -196 -280 -288zM119 305l133 754h162l-133 -754q-1 -5 -1.5 -13t1.5 -30t9 -40t26.5 -36t48.5 -24l-27 -160q-11 2 -28.5 7t-60.5 27.5t-73.5 53t-50 87.5t-6.5 128z" />
<glyph unicode="&#xef;" horiz-adv-x="489" d="M90 1264l33 178h180l-33 -178h-180zM119 305l133 754h162l-133 -754q-1 -5 -1.5 -13t1.5 -30t9 -40t26.5 -36t48.5 -24l-27 -160q-11 2 -28.5 7t-60.5 27.5t-73.5 53t-50 87.5t-6.5 128zM467 1264l33 178h180l-33 -178h-180z" />
<glyph unicode="&#xf0;" horiz-adv-x="989" d="M73 239.5q-3 34.5 5 65.5l39 225q14 79 54.5 140.5t94 95.5t107.5 51t104 17h256l15 77q23 127 -72 273l-135 -135l-60 57l133 135q-98 77 -208 117q15 30 39 75t36 68q153 -45 262 -133q21 21 71.5 71t74.5 74q13 -13 31 -32t26 -27l-143 -145q143 -186 106 -398 l-106 -606q-11 -64 -40.5 -117t-68 -87t-84 -57.5t-87.5 -33.5t-81 -10h-110q-54 0 -98.5 14t-72.5 37.5t-49 54.5t-28.5 65t-10.5 68.5zM240 305q-22 -145 118 -145h111q148 4 172 145l66 369h-256q-148 -4 -172 -144z" />
<glyph unicode="&#xf1;" horiz-adv-x="1030" d="M66 0h161l131 754q1 6 3.5 15.5t15 34.5t30 44.5t50 35t73.5 15.5h111q6 0 15.5 -1t33.5 -8.5t40.5 -21.5t27 -43.5t2.5 -70.5l-131 -754h162l133 760q10 64 2.5 111.5t-29.5 80t-50.5 53.5t-59.5 32t-57 16t-43 5l-17 1h-111q-3 0 -9 -1t-21.5 -9.5t-28.5 -23.5t-28 -48 t-23 -78l-130 160h-67zM338 1239q27 79 92.5 163.5t126.5 84.5q12 0 24 -2.5t29 -11l24 -12t29.5 -17t24.5 -14.5q3 -2 16.5 -10t18 -10.5t16 -8.5t17.5 -8.5t15.5 -6t17 -5t14.5 -1.5q32 0 60.5 22t41.5 42.5t23 42.5h71q-16 -49 -49 -104.5t-81 -99.5t-91 -44q-11 0 -23 3 t-28 11t-24 11.5t-29.5 16.5t-24.5 15q-6 3 -23.5 13.5t-25.5 14.5t-22 10.5t-25.5 9t-22.5 2.5q-70 0 -122 -107h-70z" />
<glyph unicode="&#xf2;" horiz-adv-x="997" d="M98 305l80 451q1 6 3.5 17t14.5 42.5t27.5 60t44.5 63.5t64.5 60.5t89 42.5t115.5 17h112q12 0 32.5 -2t70 -18t85 -44.5t57.5 -91t7 -147.5l-80 -451q-1 -6 -3.5 -17t-14 -43t-27 -60.5t-44.5 -64t-64.5 -60.5t-89 -42.5t-115.5 -17.5h-113q-12 0 -32.5 2t-70 18.5 t-85 45t-57.5 91.5t-7 148zM258 289.5q-1 -9.5 2.5 -34.5t13.5 -44.5t36.5 -35t66.5 -15.5h112q3 0 8 0.5t20.5 3t30 7.5t33 16t33 25.5t27 38.5t18.5 54l80 451q1 3 1.5 8t0 20t-3 28.5t-10.5 30t-20 28.5t-34.5 20t-51.5 8h-113q-6 0 -15.5 -1t-35.5 -8.5t-47.5 -21 t-42 -43t-27.5 -69.5l-80 -451q-1 -6 -2 -15.5zM422 1507h168q32 -90 94 -288h-121q-16 32 -44 90.5t-51.5 106.5t-45.5 91z" />
<glyph unicode="&#xf3;" horiz-adv-x="997" d="M98 305l80 451q1 6 3.5 17t14.5 42.5t27.5 60t44.5 63.5t64.5 60.5t89 42.5t115.5 17h112q12 0 32.5 -2t70 -18t85 -44.5t57.5 -91t7 -147.5l-80 -451q-1 -6 -3.5 -17t-14 -43t-27 -60.5t-44.5 -64t-64.5 -60.5t-89 -42.5t-115.5 -17.5h-113q-12 0 -32.5 2t-70 18.5 t-85 45t-57.5 91.5t-7 148zM258 289.5q-1 -9.5 2.5 -34.5t13.5 -44.5t36.5 -35t66.5 -15.5h112q3 0 8 0.5t20.5 3t30 7.5t33 16t33 25.5t27 38.5t18.5 54l80 451q1 3 1.5 8t0 20t-3 28.5t-10.5 30t-20 28.5t-34.5 20t-51.5 8h-113q-6 0 -15.5 -1t-35.5 -8.5t-47.5 -21 t-42 -43t-27.5 -69.5l-80 -451q-1 -6 -2 -15.5zM557 1219h123q239 284 242 288h-168q-132 -194 -197 -288z" />
<glyph unicode="&#xf4;" horiz-adv-x="997" d="M98 305l80 451q1 6 3.5 17t14.5 42.5t27.5 60t44.5 63.5t64.5 60.5t89 42.5t115.5 17h112q12 0 32.5 -2t70 -18t85 -44.5t57.5 -91t7 -147.5l-80 -451q-1 -6 -3.5 -17t-14 -43t-27 -60.5t-44.5 -64t-64.5 -60.5t-89 -42.5t-115.5 -17.5h-113q-12 0 -32.5 2t-70 18.5 t-85 45t-57.5 91.5t-7 148zM258 289.5q-1 -9.5 2.5 -34.5t13.5 -44.5t36.5 -35t66.5 -15.5h112q3 0 8 0.5t20.5 3t30 7.5t33 16t33 25.5t27 38.5t18.5 54l80 451q1 3 1.5 8t0 20t-3 28.5t-10.5 30t-20 28.5t-34.5 20t-51.5 8h-113q-6 0 -15.5 -1t-35.5 -8.5t-47.5 -21 t-42 -43t-27.5 -69.5l-80 -451q-1 -6 -2 -15.5zM336 1221h145q28 29 88 92t84 88l113 -180h145q-31 48 -91.5 144t-90.5 144h-113q-192 -196 -280 -288z" />
<glyph unicode="&#xf5;" horiz-adv-x="997" d="M98 305l80 451q1 6 3.5 17t14.5 42.5t27.5 60t44.5 63.5t64.5 60.5t89 42.5t115.5 17h112q12 0 32.5 -2t70 -18t85 -44.5t57.5 -91t7 -147.5l-80 -451q-1 -6 -3.5 -17t-14 -43t-27 -60.5t-44.5 -64t-64.5 -60.5t-89 -42.5t-115.5 -17.5h-113q-12 0 -32.5 2t-70 18.5 t-85 45t-57.5 91.5t-7 148zM258 289.5q-1 -9.5 2.5 -34.5t13.5 -44.5t36.5 -35t66.5 -15.5h112q3 0 8 0.5t20.5 3t30 7.5t33 16t33 25.5t27 38.5t18.5 54l80 451q1 3 1.5 8t0 20t-3 28.5t-10.5 30t-20 28.5t-34.5 20t-51.5 8h-113q-6 0 -15.5 -1t-35.5 -8.5t-47.5 -21 t-42 -43t-27.5 -69.5l-80 -451q-1 -6 -2 -15.5zM319 1239q27 79 93 163.5t127 84.5q12 0 24 -2.5t29 -11l24 -12t29.5 -17t24.5 -14.5q3 -2 19 -11.5t21 -12t18 -9.5t20 -9.5t17.5 -5t18.5 -2.5q32 0 60.5 22t41.5 42.5t23 42.5h72q-16 -49 -49 -104.5t-81 -99.5t-91 -44 q-11 0 -23 3t-28 11t-24 11.5t-29.5 16.5t-24.5 15q-6 3 -23.5 13.5t-25.5 14.5t-22 10.5t-25.5 9t-22.5 2.5q-71 0 -123 -107h-70z" />
<glyph unicode="&#xf6;" horiz-adv-x="997" d="M98 305l80 451q1 6 3.5 17t14.5 42.5t27.5 60t44.5 63.5t64.5 60.5t89 42.5t115.5 17h112q12 0 32.5 -2t70 -18t85 -44.5t57.5 -91t7 -147.5l-80 -451q-1 -6 -3.5 -17t-14 -43t-27 -60.5t-44.5 -64t-64.5 -60.5t-89 -42.5t-115.5 -17.5h-113q-12 0 -32.5 2t-70 18.5 t-85 45t-57.5 91.5t-7 148zM258 289.5q-1 -9.5 2.5 -34.5t13.5 -44.5t36.5 -35t66.5 -15.5h112q3 0 8 0.5t20.5 3t30 7.5t33 16t33 25.5t27 38.5t18.5 54l80 451q1 3 1.5 8t0 20t-3 28.5t-10.5 30t-20 28.5t-34.5 20t-51.5 8h-113q-6 0 -15.5 -1t-35.5 -8.5t-47.5 -21 t-42 -43t-27.5 -69.5l-80 -451q-1 -6 -2 -15.5zM350 1264l33 178h180l-33 -178h-180zM727 1264l33 178h180l-33 -178h-180z" />
<glyph unicode="&#xf7;" horiz-adv-x="1007" d="M72 449l28 161h836l-29 -161h-835zM350 113l29 161h162l-29 -161h-162zM469 786l29 162h161l-28 -162h-162z" />
<glyph unicode="&#xf8;" horiz-adv-x="999" d="M57 29l66 84q-46 77 -25 192l80 451q1 6 3.5 17t14.5 42.5t27.5 60t44.5 63.5t65 60.5t89.5 42.5t116.5 17h112q10 0 27.5 -1.5t61 -14t75.5 -35.5l59 75l70 -49l-70 -86q48 -75 29 -192l-80 -451q-1 -6 -3.5 -17t-14 -43t-27 -60.5t-44.5 -64t-64.5 -60.5t-89 -42.5 t-115.5 -17.5h-113q-11 0 -28.5 1.5t-62.5 14t-79 35.5l-57 -74zM258 289l451 581q-33 29 -86 29h-113q-6 0 -15.5 -1t-35.5 -8.5t-47.5 -21t-42 -43t-27.5 -69.5l-80 -451q-2 -6 -4 -16zM291 190q27 -30 88 -30h113q3 0 8 0.5t20.5 3t30 7.5t33 16t33 25.5t27 38.5t18.5 54 l79 451v18z" />
<glyph unicode="&#xf9;" horiz-adv-x="1042" d="M109 305l133 754h161l-133 -754q-8 -41 1.5 -70.5t28 -43.5t38.5 -21.5t34 -8.5l15 -1h113q40 0 72.5 15t49.5 36t29 42.5t15 36.5l4 15l133 754h160l-134 -754q-1 -5 -1.5 -13t2 -30t10 -40t27.5 -36t51 -24l-27 -160q-6 1 -16.5 4t-39.5 15.5t-55 27.5t-57 42t-51 59 q-115 -150 -199 -150h-113q-12 0 -32.5 2t-70 18.5t-84.5 45t-57 91.5t-7 148zM436 1507h168q32 -90 94 -288h-120q-118 240 -142 288z" />
<glyph unicode="&#xfa;" horiz-adv-x="1042" d="M109 305l133 754h161l-133 -754q-8 -41 1.5 -70.5t28 -43.5t38.5 -21.5t34 -8.5l15 -1h113q40 0 72.5 15t49.5 36t29 42.5t15 36.5l4 15l133 754h160l-134 -754q-1 -5 -1.5 -13t2 -30t10 -40t27.5 -36t51 -24l-27 -160q-6 1 -16.5 4t-39.5 15.5t-55 27.5t-57 42t-51 59 q-115 -150 -199 -150h-113q-12 0 -32.5 2t-70 18.5t-84.5 45t-57 91.5t-7 148zM571 1219h123q239 284 242 288h-168q-132 -194 -197 -288z" />
<glyph unicode="&#xfb;" horiz-adv-x="1042" d="M109 305l133 754h161l-133 -754q-8 -41 1.5 -70.5t28 -43.5t38.5 -21.5t34 -8.5l15 -1h113q40 0 72.5 15t49.5 36t29 42.5t15 36.5l4 15l133 754h160l-134 -754q-1 -5 -1.5 -13t2 -30t10 -40t27.5 -36t51 -24l-27 -160q-6 1 -16.5 4t-39.5 15.5t-55 27.5t-57 42t-51 59 q-115 -150 -199 -150h-113q-12 0 -32.5 2t-70 18.5t-84.5 45t-57 91.5t-7 148zM350 1221h146q28 29 88 92t84 88l112 -180h146l-183 288h-112q-229 -233 -281 -288z" />
<glyph unicode="&#xfc;" horiz-adv-x="1042" d="M109 305l133 754h161l-133 -754q-8 -41 1.5 -70.5t28 -43.5t38.5 -21.5t34 -8.5l15 -1h113q40 0 72.5 15t49.5 36t29 42.5t15 36.5l4 15l133 754h160l-134 -754q-1 -5 -1.5 -13t2 -30t10 -40t27.5 -36t51 -24l-27 -160q-6 1 -16.5 4t-39.5 15.5t-55 27.5t-57 42t-51 59 q-115 -150 -199 -150h-113q-12 0 -32.5 2t-70 18.5t-84.5 45t-57 91.5t-7 148zM365 1264l32 178h181l-33 -178h-180zM741 1264l33 178h180l-32 -178h-181z" />
<glyph unicode="&#xfd;" horiz-adv-x="1028" d="M43 -449l29 160h350q40 0 72 15t49 36t28.5 42t14.5 36l4 15l26 145h-256q-12 0 -32.5 2t-70 18.5t-84.5 45t-57 91.5t-7 148l133 754h161l-133 -754q-8 -41 1.5 -70.5t28 -43.5t38.5 -21.5t34 -8.5l15 -1h256l160 899h162l-213 -1204q-11 -62 -36.5 -112t-58 -81 t-69 -53.5t-71 -33t-62.5 -17t-45 -6.5l-17 -1h-350zM571 1219h123q239 284 242 288h-168q-132 -194 -197 -288z" />
<glyph unicode="&#xfe;" horiz-adv-x="1019" d="M-14 -449l344 1958h162l-109 -610q2 7 7 17.5t21.5 38t35 48.5t49 38.5t63.5 17.5h111q12 0 32.5 -2t70.5 -18t85.5 -44.5t58 -91t7.5 -147.5l-80 -451q-11 -62 -36.5 -112.5t-58 -81.5t-69.5 -54t-71.5 -33.5t-63 -16.5t-45.5 -7h-17h-256l-80 -449h-161zM254 160h256 q6 0 16 1t36.5 8.5t48 21.5t42.5 43.5t29 70.5l80 451q1 6 1.5 15.5t-3 34t-14 43.5t-37.5 34.5t-68 15.5h-111q-6 0 -16 -1t-36 -8.5t-47.5 -21t-42.5 -43t-28 -69.5z" />
<glyph unicode="&#xff;" horiz-adv-x="1028" d="M43 -449l29 160h350q40 0 72 15t49 36t28.5 42t14.5 36l4 15l26 145h-256q-12 0 -32.5 2t-70 18.5t-84.5 45t-57 91.5t-7 148l133 754h161l-133 -754q-8 -41 1.5 -70.5t28 -43.5t38.5 -21.5t34 -8.5l15 -1h256l160 899h162l-213 -1204q-11 -62 -36.5 -112t-58 -81 t-69 -53.5t-71 -33t-62.5 -17t-45 -6.5l-17 -1h-350zM365 1264l32 178h181l-33 -178h-180zM741 1264l33 178h180l-32 -178h-181z" />
<glyph unicode="&#x152;" horiz-adv-x="1599" d="M92 335q-2 37 1 60l3 23l101 563q2 9 5.5 24t19 58t37 82.5t61 87.5t88 82.5t122 58t158.5 23.5q204 0 305 -152q85 75 186 113.5t183 38.5h305l-29 -160h-307q-15 -1 -28 -2t-42 -6.5t-52.5 -14.5t-53 -26.5t-51.5 -40.5t-41 -59t-27 -80q-10 -60 5 -105.5t42 -68 t64.5 -36.5t61.5 -17t44 -3h193l-29 -160h-192q-21 0 -45.5 -3t-67 -16.5t-77 -36t-65.5 -67.5t-42 -106q-10 -60 5 -105t41.5 -68t63.5 -36.5t61 -16.5t44 -3h305l-27 -160h-305q-83 0 -169.5 38t-145.5 114q-156 -152 -359 -152q-85 0 -150.5 23t-101.5 60t-59.5 81.5 t-30 89t-8.5 81.5zM255.5 367q0.5 -27 5 -51t18.5 -54t36 -51.5t62 -36t92 -14.5q70 0 127 26t87.5 59.5t52.5 75t28 63t8 32.5q36 156 205 280q-124 127 -105 287q1 4 2 16.5t0 37t-6 50t-19.5 53t-37 48.5t-62 35t-90.5 14q-72 0 -129 -26.5t-88 -64t-51.5 -75 t-26.5 -63.5l-6 -27l-100 -563q-1 -5 -2 -14.5t-0.5 -36.5z" />
<glyph unicode="&#x153;" horiz-adv-x="1556" d="M98 305l80 451q1 6 3.5 17t14 42.5t27 60t44.5 63.5t64.5 60.5t88.5 42.5t115 17h112q5 0 13 -0.5t33 -5.5t49 -13t56 -26t58 -43q109 88 242 88h110q12 0 32.5 -2t70 -18t85 -44.5t57.5 -91t7 -147.5q-1 -6 -3.5 -17.5t-14.5 -43t-27.5 -60.5t-45 -64.5t-65 -61t-89 -43 t-115.5 -17.5h-256l-25 -144q-1 -3 -1.5 -8t0 -20.5t3 -29t10 -30t20 -29t35 -20.5t52.5 -8h416l-27 -160h-416q-5 0 -13.5 0.5t-33.5 5.5t-49.5 13t-57 26t-59.5 43q-109 -88 -237 -88h-113q-12 0 -32.5 2t-69.5 18.5t-84 45t-57 91.5t-7 148zM256 289.5q-1 -9.5 2.5 -34.5 t13.5 -44.5t36.5 -35t66.5 -15.5h112q3 0 8 0.5t20.5 3t30 7.5t33 16t33 25.5t27 38.5t18.5 54l80 451q1 6 2 15.5t-3 34t-14 43.5t-37 34.5t-67 15.5h-112q-6 0 -15.5 -1t-35.5 -8.5t-47.5 -21t-42 -43t-27.5 -69.5l-80 -451q-1 -6 -2 -15.5zM872 610h256q6 0 16 1t36.5 9 t48 21.5t42.5 43.5t29 71q7 40 -3 69.5t-28.5 43t-38.5 21t-35 8.5l-15 1h-111q-6 0 -16 -1t-36 -8.5t-47.5 -21t-42.5 -43t-28 -69.5z" />
<glyph unicode="&#x178;" horiz-adv-x="876" d="M127 1397h180l172 -631l400 631h178l-525 -795l-104 -602h-162l105 602zM289 1567l33 178h180l-33 -178h-180zM666 1567l32 178h181l-33 -178h-180z" />
<glyph unicode="&#x2c6;" horiz-adv-x="747" d="M209 1221h145q28 29 88 92t84 88l113 -180h145q-30 48 -91 144t-91 144h-113q-192 -196 -280 -288z" />
<glyph unicode="&#x2dc;" horiz-adv-x="788" d="M211 1239q27 79 92.5 163.5t126.5 84.5q12 0 24 -2.5t29 -11l24 -12t29.5 -17t24.5 -14.5q3 -2 16.5 -10t18 -10.5t16 -8.5t17.5 -8.5t15.5 -6t17 -5t14.5 -1.5q32 0 60.5 22t41.5 42.5t23 42.5h71q-16 -49 -49 -104.5t-81 -99.5t-91 -44q-11 0 -23 3t-28 11t-24 11.5 t-29.5 16.5t-24.5 15q-6 3 -23.5 13.5t-25.5 14.5t-22 10.5t-25.5 9t-22.5 2.5q-70 0 -122 -107h-70z" />
<glyph unicode="&#x2000;" horiz-adv-x="927" />
<glyph unicode="&#x2001;" horiz-adv-x="1855" />
<glyph unicode="&#x2002;" horiz-adv-x="927" />
<glyph unicode="&#x2003;" horiz-adv-x="1855" />
<glyph unicode="&#x2004;" horiz-adv-x="618" />
<glyph unicode="&#x2005;" horiz-adv-x="463" />
<glyph unicode="&#x2006;" horiz-adv-x="309" />
<glyph unicode="&#x2007;" horiz-adv-x="309" />
<glyph unicode="&#x2008;" horiz-adv-x="231" />
<glyph unicode="&#x2009;" horiz-adv-x="371" />
<glyph unicode="&#x200a;" horiz-adv-x="103" />
<glyph unicode="&#x2010;" horiz-adv-x="780" d="M72 449l28 161h609l-29 -161h-608z" />
<glyph unicode="&#x2011;" horiz-adv-x="780" d="M72 449l28 161h609l-29 -161h-608z" />
<glyph unicode="&#x2012;" horiz-adv-x="780" d="M72 449l28 161h609l-29 -161h-608z" />
<glyph unicode="&#x2013;" horiz-adv-x="751" d="M6 483h723l19 103h-723z" />
<glyph unicode="&#x2014;" horiz-adv-x="1310" d="M6 483l19 103h1282l-19 -103h-1282z" />
<glyph unicode="&#x2018;" horiz-adv-x="370" d="M156 928l37 207q12 63 38 113.5t58.5 80t55.5 44.5t42 22q5 -11 17.5 -31.5t17.5 -32.5q-41 -15 -69 -41.5t-39.5 -54.5t-17 -53.5t-4.5 -41.5l1 -16h96l-35 -196h-198z" />
<glyph unicode="&#x2019;" horiz-adv-x="370" d="M172 991q41 15 69 41.5t39.5 54.5t17 53.5t4.5 41.5l-1 16h-96l35 197h198l-37 -207q-12 -63 -38 -113.5t-58.5 -80t-55.5 -44.5t-42 -22q-5 11 -17.5 31.5t-17.5 31.5z" />
<glyph unicode="&#x201a;" horiz-adv-x="370" d="M-39 -207q41 15 69 41.5t39.5 54.5t17 53.5t4.5 41.5l-1 16h-96l33 197h198l-35 -207q-11 -63 -38 -113.5t-59.5 -80t-55 -44t-41.5 -22.5q-5 12 -17.5 32t-17.5 31z" />
<glyph unicode="&#x201c;" horiz-adv-x="698" d="M156 928l37 207q12 63 38 113.5t58.5 80t55.5 44.5t42 22q5 -11 17.5 -31.5t17.5 -32.5q-41 -15 -69 -41.5t-39.5 -54.5t-17 -53.5t-4.5 -41.5l1 -16h96l-35 -196h-198zM483 928l37 207q12 63 38.5 113.5t58.5 80t55.5 44.5t42.5 22q5 -11 17.5 -31.5t17.5 -32.5 q-41 -15 -69 -41.5t-39.5 -54.5t-17 -53.5t-4.5 -41.5l1 -16h96l-35 -196h-199z" />
<glyph unicode="&#x201d;" horiz-adv-x="698" d="M172 991q41 15 69 41.5t39.5 54.5t17 53.5t4.5 41.5l-1 16h-96l35 197h198l-37 -207q-12 -63 -38 -113.5t-58.5 -80t-55.5 -44.5t-42 -22q-5 11 -17.5 31.5t-17.5 31.5zM500 991q41 15 69 41.5t39.5 54.5t17 53.5t4.5 41.5l-1 16h-97l35 197h199l-37 -207 q-12 -63 -38 -113.5t-58.5 -80t-55.5 -44.5t-42 -22q-5 11 -17.5 31.5t-17.5 31.5z" />
<glyph unicode="&#x201e;" horiz-adv-x="739" d="M-39 -207q41 15 69 41.5t39.5 54.5t17 53.5t4.5 41.5l-1 16h-96l33 197h198l-35 -207q-11 -63 -38 -113.5t-59.5 -80t-55 -44t-41.5 -22.5q-5 12 -17.5 32t-17.5 31zM330 -207q41 15 69 41.5t39.5 54.5t17 53.5t4.5 41.5l-1 16h-97l33 197h199l-35 -207 q-11 -63 -38 -113.5t-59.5 -80t-55 -44t-41.5 -22.5q-5 11 -17.5 31.5t-17.5 31.5z" />
<glyph unicode="&#x2022;" horiz-adv-x="624" d="M86 530q-17 -95 37.5 -161t148.5 -66q95 0 172.5 66t94.5 161q17 94 -37.5 160t-149.5 66q-94 0 -171.5 -66t-94.5 -160z" />
<glyph unicode="&#x2026;" horiz-adv-x="1425" d="M20 154l181 151l125 -151l-179 -152zM496 154l178 151l127 -151l-180 -152zM971 154l178 151l125 -151l-178 -152z" />
<glyph unicode="&#x202f;" horiz-adv-x="371" />
<glyph unicode="&#x2039;" horiz-adv-x="690" d="M55 530q80 70 233 207.5t236 210.5h185l-463 -418q57 -75 166.5 -220.5t148.5 -196.5h-184z" />
<glyph unicode="&#x203a;" horiz-adv-x="692" d="M-18 113h184q198 173 471 417q-25 33 -324 418h-184q75 -99 315 -418z" />
<glyph unicode="&#x205f;" horiz-adv-x="463" />
<glyph unicode="&#x20ac;" horiz-adv-x="1310" d="M-25 305l17 96l207 48q-19 83 -13 172l-161 -37l16 94l158 35q37 188 159 345.5t297.5 249t362.5 91.5q210 0 371 -119l-115 -133q-123 92 -285 92q-208 0 -386.5 -140.5t-235.5 -346.5l899 209l-17 -95l-899 -209q-9 -89 10 -172l857 197l-17 -94l-807 -187 q55 -111 162 -176t244 -65q167 0 315 90l70 -129q-199 -121 -412 -121q-194 0 -341 98.5t-208 261.5z" />
<glyph unicode="&#x2122;" horiz-adv-x="1181" d="M162 1309l16 90h416l-16 -90h-164l-76 -437h-90l76 437h-162zM631 872l92 527h104l109 -283l209 283h104l-92 -527h-90l63 367l-227 -303l-119 303l-63 -367h-90z" />
<glyph unicode="&#x25fc;" horiz-adv-x="1054" d="M0 0v1055h1055v-1055h-1055z" />
<glyph unicode="&#xfb01;" horiz-adv-x="1081" d="M-111 -446l29 159q31 0 56.5 14.5t39.5 35.5t23.5 42t12.5 35l3 15l185 1044h-113l29 160h157q-95 106 -82 190q13 73 53.5 126.5t89.5 78t96 38.5t78 16l32 1h505l-26 -161h-506q-40 0 -72.5 -15t-49.5 -36t-29 -42t-16 -36l-3 -15q-1 -6 -2 -15.5t1 -34.5t8.5 -44.5 t24.5 -35t46 -15.5h192l-28 -160h-224l-184 -1044q-12 -69 -43.5 -123t-67 -85t-80 -52.5t-75 -29t-60.5 -11.5zM711 305l133 754h162l-134 -754q-1 -5 -1.5 -13t1.5 -30t9 -40t26.5 -36t48.5 -24l-26 -160q-11 2 -28.5 7t-60.5 27.5t-73.5 53t-50 87.5t-6.5 128z" />
<glyph unicode="&#xfb02;" horiz-adv-x="1083" d="M-111 -446l29 159q31 0 56.5 14.5t39.5 35.5t23.5 42t12.5 35l3 15l185 1044h-113l29 160h157q-95 106 -82 190q13 73 53.5 126.5t89.5 78t96 38.5t78 16l32 1h503l-211 -1204q-1 -5 -1.5 -13t2 -30t10.5 -40t27.5 -36t49.5 -24l-26 -160q-11 2 -28.5 7t-61 27.5 t-74.5 53t-50.5 87.5t-6.5 128l182 1043h-342q-40 0 -72.5 -15t-49.5 -36t-29 -42t-16 -36l-3 -15q-1 -6 -2 -15.5t1 -34.5t8.5 -44.5t24.5 -35t46 -15.5h192l-28 -160h-224l-184 -1044q-12 -69 -43.5 -123t-67 -85t-80 -52.5t-75 -29t-60.5 -11.5z" />
</font>
</defs>
</svg>
